<?xml version="1.0" encoding="UTF-8" standalone="no"?>
<!-- Created with Inkscape (http://www.inkscape.org/) -->

<svg
   xmlnsDc="http://purl.org/dc/elements/1.1/"
   xmlnsCc="http://creativecommons.org/ns#"
   xmlnsRdf="http://www.w3.org/1999/02/22-rdf-syntax-ns#"
   xmlnsSvg="http://www.w3.org/2000/svg"
   xmlns="http://www.w3.org/2000/svg"
   xmlnsSodipodi="http://sodipodi.sourceforge.net/DTD/sodipodi-0.dtd"
   xmlnsInkscape="http://www.inkscape.org/namespaces/inkscape"
   version="1.1"
   id="svg64"
   width="148.48"
   height="183.67999"
   viewBox="0 0 148.48 183.67999"
   sodipodiDocname="business-logo.svg"
   inkscapeVersion="0.92.4 (f8dce91, 2019-08-02)">
  <metadata
     id="metadata70">
    <rdfRDF>
      <ccWork
         rdfAbout="">
        <dcFormat>image/svg+xml</dcFormat>
        <dcType
           rdfresource="http://purl.org/dc/dcmitype/StillImage" />
        <dcTitle></dcTitle>
      </ccWork>
    </rdfRDF>
  </metadata>
  <defs
     id="defs68" />
  <sodipodiNamedview
     pagecolor="#ffffff"
     bordercolor="#666666"
     borderopacity="1"
     objecttolerance="10"
     gridtolerance="10"
     guidetolerance="10"
     inkscapePageopacity="0"
     inkscapePageshadow="2"
     inkscapeWindow-width="3200"
     inkscapeWindow-height="1689"
     id="namedview66"
     showgrid="false"
     inkscapeZoom="7.8560543"
     inkscapeCx="74.239998"
     inkscapeCy="91.839996"
     inkscapeWindow-x="0"
     inkscapeWindow-y="55"
     inkscapeWindow-maximized="1"
     inkscapeCurrent-layer="svg64" />
  <path
     style="fill:#000000;stroke-width:0.31999999"
     d="m 115.01636,175.84948 c -2.29522,-1.27435 -3.87342,-1.97707 -3.94667,-1.75733 -0.25913,0.77739 -1.21436,0.29686 -2.77929,-1.39812 -1.53872,-1.66658 -1.79191,-1.8079 -4.57254,-2.55204 -5.074686,-1.35808 -9.408466,-3.97308 -9.839906,-5.9374 -0.30718,-1.39861 0.43917,-2.32813 2.79451,-3.48035 2.38484,-1.16665 4.598346,-1.62593 7.836236,-1.62593 2.18778,0 2.55319,-0.10088 4.51632,-1.24687 2.75987,-1.61109 4.2453,-2.06248 6.1765,-1.87692 2.23591,0.21484 3.81433,1.83421 2.19945,2.25651 -0.80319,0.21004 -0.81723,0.99868 -0.0374,2.09788 0.33145,0.46717 0.65706,1.1374 0.72358,1.4894 0.10683,0.56533 0.46044,0.66394 3.03065,0.84518 2.29412,0.16177 3.5458,0.45835 5.91641,1.4019 5.84533,2.32655 8.02582,3.83721 9.5334,6.60478 l 0.75615,1.38814 -1.01121,-1.07048 c -0.62559,-0.66226 -1.19713,-0.99913 -1.49875,-0.88339 -0.26814,0.1029 -1.16373,-0.15533 -1.9902,-0.57383 -2.07418,-1.05033 -4.71223,-1.7923 -6.37243,-1.7923 h -1.3936 l 1.97188,2.8455 c 3.09934,4.47246 2.10146,4.50806 -4.41331,0.15744 -4.63119,-3.09275 -4.6741,-3.05459 -2.17963,1.9379 0.78617,1.57346 1.39047,2.89978 1.34288,2.94737 -0.22264,0.22264 -3.06748,-1.9571 -5.67419,-4.34759 -2.85467,-2.61787 -2.88929,-2.63783 -3.67844,-2.12076 l -0.79665,0.52198 2.35105,1.89133 c 4.28752,3.44912 5.69962,4.84861 5.59621,5.5462 -0.053,0.35777 -0.24044,0.69658 -0.41644,0.7529 -0.176,0.0563 -2.04108,-0.85318 -4.14461,-2.0211 z m -45.808875,-5.15607 c -0.194416,-0.1293 -0.577081,-0.66667 -0.850365,-1.19416 l -0.49688,-0.95905 -0.320774,1.11905 -0.320774,1.11906 -0.02886,-1.21698 c -0.01914,-0.80698 0.240652,-1.6136 0.771139,-2.39428 1.086525,-1.59897 1.007184,-2.8285 -0.348819,-5.40549 -1.051245,-1.99782 -1.135812,-2.35437 -0.995661,-4.19803 0.108048,-1.4214 0.04585,-1.9796 -0.211184,-1.89533 -0.723527,0.23721 -1.72168,2.14857 -1.925872,3.68784 -0.133447,1.00596 -0.453523,1.79012 -0.888707,2.17724 -0.37408,0.33277 -0.944644,1.18103 -1.267924,1.88503 -0.498371,1.0853 -0.5876,1.15831 -0.586614,0.48 6.4e-4,-0.44 0.501475,-1.58533 1.112973,-2.54517 1.54943,-2.4321 1.492419,-3.31949 -0.119168,-1.85483 -0.435725,0.396 -0.667466,0.50596 -0.514986,0.24435 0.893834,-1.53352 3.316445,-4.86157 4.506039,-6.19015 1.619337,-1.80854 2.0375,-3.07012 2.033238,-6.1342 -0.0038,-2.70826 -0.258598,-3.26306 -1.254096,-2.73028 -0.872294,0.46683 -2.578598,3.10657 -2.581005,3.99293 -0.0041,1.49425 -0.657881,2.91549 -1.627312,3.53735 -0.548742,0.352 -1.260509,1.216 -1.581702,1.92 l -0.583994,1.28 -0.0177,-1.28 c -0.0208,-1.50507 0.09493,-1.70527 1.572496,-2.72 0.616,-0.42304 1.225795,-0.9201 1.355101,-1.10458 0.343258,-0.48973 0.296531,-2.02574 -0.06849,-2.25133 -0.499831,-0.30891 -1.587924,0.42994 -2.262541,1.53633 -0.440509,0.72246 -0.622029,0.85025 -0.622877,0.43855 -0.0019,-0.91053 0.579562,-1.77178 1.528288,-2.26379 0.478784,-0.2483 1.856573,-1.4097 3.06175,-2.5809 l 2.191236,-2.12945 -0.409943,-2.06241 c -0.225472,-1.13433 -0.500585,-2.06242 -0.611369,-2.06242 -0.512218,0 -1.967536,1.94146 -2.758538,3.68 -0.922582,2.02775 -2.001632,3.68 -2.403328,3.68 -0.506003,0 2.47593,-5.36419 3.929152,-7.06814 1.663318,-1.95029 2.362403,-3.96082 1.84783,-5.31425 -0.169196,-0.44502 -0.445782,-0.68298 -0.648329,-0.5578 -0.595735,0.36819 -1.247949,2.2886 -1.247949,3.67453 0,1.88561 -1.33209,3.18566 -3.264182,3.18566 -0.766378,0 -1.716624,0.22639 -2.111661,0.50308 -0.894128,0.62628 -2.624157,3.99295 -2.624157,5.10668 0,0.47052 -0.13816,0.74263 -0.32,0.63024 -0.176,-0.10877 -0.322205,-0.72927 -0.324899,-1.37888 -0.0062,-1.48866 -0.293191,-1.93756 -1.462375,-2.28719 l -0.932722,-0.27892 1.128797,-0.0275 c 1.244806,-0.0303 2.12304,-0.52612 3.881523,-2.19124 0.882586,-0.83573 1.534595,-1.14925 2.651949,-1.27519 1.010217,-0.11386 1.630547,-0.37961 1.94968,-0.83524 0.544006,-0.77668 0.630845,-3.58745 0.120573,-3.90281 -0.191111,-0.11811 -0.909536,0.37018 -1.596496,1.0851 -1.06114,1.10433 -3.343792,2.23078 -3.732599,1.84197 -0.06191,-0.0619 0.649997,-0.54664 1.582007,-1.07719 3.485241,-1.98398 4.491689,-4.06917 1.58646,-3.28687 -0.953945,0.25687 -1.680201,0.79222 -2.674691,1.97163 -0.750848,0.89046 -1.655881,1.76981 -2.01119,1.95411 -0.623136,0.32322 -0.622016,0.30805 0.03165,-0.42834 0.372707,-0.41989 0.945341,-1.18395 1.272515,-1.69793 l 0.594867,-0.9345 -1.090601,0.21811 c -1.250906,0.25019 -5.231786,4.11178 -5.957626,5.77911 -0.258243,0.59321 -0.436787,0.76673 -0.444278,0.43178 -0.01558,-0.69704 -1.277447,-0.75166 -2.508416,-0.10857 -1.090045,0.56947 -2.482836,2.02658 -2.93312,3.06857 -0.331572,0.76728 -0.337956,0.76074 -0.156112,-0.16 0.234553,-1.18764 1.104976,-2.72344 1.745123,-3.07916 0.264,-0.1467 1.072614,-0.41424 1.796921,-0.59452 0.724311,-0.18029 1.848039,-0.74987 2.497178,-1.26574 1.341606,-1.06617 2.578096,-2.53505 2.33697,-2.77618 -0.230308,-0.23031 -2.490125,0.75588 -3.22592,1.4078 -0.594941,0.52712 -0.604346,0.52125 -0.249236,-0.15579 0.54345,-1.03611 1.646682,-1.69641 2.834368,-1.69641 0.748202,0 1.402583,-0.32046 2.288199,-1.12056 0.895952,-0.80944 1.653805,-1.17723 2.729571,-1.32468 1.752211,-0.24016 1.725786,-0.3577 -0.163859,-0.72884 l -1.404192,-0.2758 1.530278,-0.0351 c 0.841651,-0.0193 2.009639,-0.23535 2.595523,-0.48015 0.971344,-0.40585 1.124708,-0.66678 1.739773,-2.96 2.20377,-8.21656 2.312256,-9.56323 2.032906,-25.23491 L 65.059892,89.178305 64.179226,87.486817 c -1.77135,-3.402175 -4.399949,-5.508498 -6.874397,-5.508498 -0.74551,0 -2.026816,0.392358 -3.206678,0.981942 -1.928858,0.963862 -2.704893,1.759305 -5.155021,5.283948 -0.984528,1.416295 -2.572429,2.334672 -4.438509,2.56705 -1.171293,0.145856 -1.165843,0.138426 0.521872,-0.711744 1.165085,-0.586899 2.414848,-1.664102 3.944032,-3.399469 1.231178,-1.397184 2.158794,-2.620048 2.061363,-2.717475 -0.09743,-0.09743 -1.23934,0.0045 -2.53758,0.226624 -3.675152,0.628656 -6.682461,0.34888 -9.253338,-0.860857 -2.283013,-1.074279 -2.997853,-1.691952 -0.96,-0.829507 4.841146,2.048828 10.787715,1.812662 15.6,-0.619552 2.428992,-1.227655 2.146083,-1.808976 -1.430179,-2.938717 -3.168266,-1.000854 -7.945581,-1.679747 -13.609821,-1.934058 -5.006177,-0.224768 -11.25297,-0.942806 -13.92,-1.600041 -2.330194,-0.574227 -1.226044,-0.575939 2.72,-0.0042 1.76,0.254995 3.56,0.457219 4,0.449386 0.727599,-0.01296 0.698638,-0.0607 -0.32,-0.527578 -5.101472,-2.338179 -6.653959,-3.200864 -8.731937,-4.852157 -1.309174,-1.040352 -2.716379,-2.363507 -3.127123,-2.940345 -0.792208,-1.112554 -0.511321,-1.035968 1.29906,0.354195 5.102572,3.918182 10.382008,6.776096 14.167433,7.669241 3.038845,0.716996 9.56354,1.612803 11.528957,1.582867 l 1.34361,-0.0205 -1.12,-0.516278 c -0.616,-0.283952 -2.416,-1.114723 -4,-1.846157 -3.521523,-1.626115 -4.510147,-2.441305 -6.564282,-5.412716 -1.583623,-2.29079 -3.398959,-3.943114 -7.897328,-7.188166 -1.974386,-1.424294 -2.390099,-1.897446 -2.924027,-3.328048 -0.825663,-2.212275 -2.283913,-9.923919 -1.781599,-9.421606 0.07642,0.07643 0.68951,2.068317 1.362413,4.426429 1.796586,6.295926 2.012331,6.627731 6.032214,9.277142 4.471516,2.947075 4.41823,2.991199 4.397092,-3.641095 -0.01341,-4.207187 -0.11122,-5.125337 -0.72,-6.758668 -0.387466,-1.039533 -0.704483,-1.967674 -0.704483,-2.062515 0,-0.09484 0.487421,0.359702 1.083158,1.010096 2.671312,2.916393 4.664541,0.0032 4.673044,-6.830233 0.0046,-3.736675 -0.458029,-5.590298 -2.746186,-11.00199 -2.332321,-5.516145 -2.377547,-5.713558 -0.46463,-2.028139 3.299651,6.357099 4.329884,10.302417 4.103404,15.714135 -0.130793,3.125225 -0.29496,3.952694 -1.320908,6.657942 -1.301863,3.432784 -1.71459,5.070819 -1.277664,5.070819 0.736365,0 10.929625,-9.3108 11.677033,-10.666121 0.248506,-0.450624 0.140317,-0.862509 -0.46799,-1.781728 -1.466125,-2.215462 -2.785389,-5.138861 -3.27841,-7.264726 -0.539769,-2.327437 -0.638416,-7.422493 -0.172848,-8.927424 0.225322,-0.728342 0.303626,-0.107508 0.324493,2.572768 0.0401,5.151005 1.413149,9.571881 3.822406,12.307232 1.182893,1.342998 1.320711,1.219644 2.323866,-2.08 1.054358,-3.468061 1.244691,-3.734141 1.03007,-1.44 -0.107024,1.144 -0.477142,2.84536 -0.822486,3.7808 -0.723494,1.95974 -1.073536,1.271897 2.927549,5.752751 2.798253,3.133792 3.510512,3.311059 4.767065,1.186448 0.723485,-1.223286 0.722756,-1.13056 -0.007,0.885648 -0.528611,1.460534 -0.08082,2.279526 2.05928,3.766342 1.103696,0.766784 2.984231,2.255629 4.178964,3.308551 1.95991,1.72727 2.256096,1.884905 3.030102,1.612703 2.574886,-0.905542 4.32888,-7.670943 3.16512,-12.208332 -0.674443,-2.629696 -1.82564,-4.869379 -3.91021,-7.607465 C 66.471274,39.688325 64.970855,36.483861 63.644154,31.91807 61.745616,25.384329 61.3457,21.760289 62.04664,17.441483 c 0.341722,-2.105491 1.55673,-6.327416 1.761898,-6.12225 0.06751,0.06752 -0.08155,1.269431 -0.331245,2.670924 -1.099289,6.170013 0.06833,18.228168 1.765072,18.228168 1.173594,0 3.198605,-9.731862 3.198605,-15.371953 0,-3.733802 -0.544829,-6.9997758 -1.69289,-10.1480454 -0.433222,-1.1879999 -0.726912,-2.1599999 -0.652646,-2.1599999 0.373037,0 2.740122,5.5990743 3.302288,7.8111883 0.880586,3.465112 0.809398,5.876523 -0.326586,11.062817 -2.116614,9.663334 -2.367638,12.458102 -1.24694,13.882838 0.879177,1.117693 1.451251,1.063433 2.075382,-0.196845 0.283274,-0.572 1.42439,-1.904 2.535818,-2.96 l 2.020774,-1.92 0.216032,-3.2 c 0.209434,-3.102271 0.703821,-5.739897 1.432832,-7.644379 0.639776,-1.67136 0.582858,-0.73074 -0.181802,3.00438 -1.564608,7.642608 -0.60406,8.982351 3.015152,4.205439 0.88568,-1.168992 2.56654,-3.70589 3.73524,-5.637551 1.16869,-1.931661 2.20831,-3.58766 2.31024,-3.679999 0.10194,-0.09234 -0.55326,1.272111 -1.45599,3.032111 -2.22177,4.331623 -4.240117,6.947586 -9.022584,11.694066 -5.26801,5.228365 -5.308483,5.413226 -2.105661,9.617056 1.059008,1.38999 1.883968,2.861926 2.110394,3.765465 0.204457,0.815875 0.475369,1.915411 0.602022,2.443411 0.379997,1.584122 2.224435,1.325085 4.584567,-0.643865 l 0.855642,-0.713821 -1.280231,-1.241158 c -1.381143,-1.338992 -2.918131,-3.360019 -4.107575,-5.401155 -0.942944,-1.618131 -0.591555,-1.247213 1.667335,1.76 0.991526,1.32 2.311638,2.890841 2.933584,3.490758 l 1.130817,1.090758 0.67096,-0.770758 c 2.32588,-2.671798 3.86635,-5.819859 4.48971,-9.175043 0.2225,-1.197577 0.24751,-0.944806 0.11915,1.204285 -0.19788,3.313193 -1.05786,5.383465 -3.17764,7.649676 l -1.48736,1.590112 1.38498,1.009376 c 0.76174,0.555155 1.88899,1.264362 2.50499,1.576013 1.48446,0.75103 5.43873,2.042758 5.63931,1.842176 0.0871,-0.08714 0.5069,-1.145939 0.93281,-2.352893 0.85601,-2.425808 1.07422,-1.834841 0.29337,0.79455 -0.49869,1.679271 -0.42607,2.288535 0.27339,2.293927 0.20961,0.0016 1.96412,0.649616 3.8989,1.44 1.93478,0.790384 3.698776,1.437062 3.919996,1.437062 0.67256,0 0.46879,-0.857792 -1.168156,-4.917459 -1.06094,-2.631165 -1.78068,-5.068124 -2.21867,-7.512172 -0.35656,-1.989683 -0.87111,-3.957661 -1.14344,-4.373287 -0.27233,-0.415625 -1.51466,-1.291427 -2.76075,-1.946223 -3.30979,-1.739245 -4.94098,-3.876599 -5.24728,-6.875506 l -0.17724,-1.735352 0.42833,1.659027 c 0.56632,2.193476 1.14852,3.022234 3.3383,4.752016 2.5843,2.041434 4.5509,3.157187 4.91789,2.790192 0.16669,-0.166691 0.56754,-1.593933 0.89078,-3.171651 0.4998,-2.439486 1.66447,-5.549584 2.07822,-5.549584 0.0675,0 -0.16925,0.756 -0.52613,1.68 -0.68757,1.780179 -1.3865,9.131833 -0.91428,9.616678 0.1375,0.141171 1.0273,-0.03876 1.97732,-0.39984 2.218936,-0.843366 3.806526,-0.841289 4.884166,0.0064 1.32277,1.040487 1.09527,1.636317 -0.34451,0.902279 -1.34917,-0.687847 -2.50563,-0.781767 -2.84594,-0.231124 -0.15948,0.258039 -0.0507,0.305056 0.34995,0.151303 0.8218,-0.315354 2.6634,0.363808 3.07576,1.134297 0.52863,0.987773 -0.1143,1.380019 -2.262,1.380019 -1.60928,0 -2.09264,-0.151363 -3.379146,-1.058182 -0.82569,-0.582 -1.54292,-1.014 -1.59383,-0.96 -0.42177,0.447303 2.0437,8.638432 2.727266,9.060896 0.14521,0.08975 0.42726,-0.331408 0.62676,-0.935904 0.1995,-0.604499 1.2175,-2.147815 2.26221,-3.429597 2.52514,-3.098153 3.02664,-4.612278 3.02664,-9.138118 0,-3.671152 0.2883,-3.80607 0.76016,-0.355737 0.53027,3.877411 -0.40066,6.859478 -3.46428,11.097237 -1.76264,2.438173 -2.57588,3.92992 -2.57588,4.724967 0,0.306537 0.7302,1.66958 1.62268,3.028985 1.44479,2.200697 3.17732,6.299059 3.17732,7.516105 0,0.924851 0.82721,0.400115 1.56669,-0.993811 0.42108,-0.793738 1.94628,-2.810441 3.38933,-4.481568 3.23853,-3.750371 4.79193,-6.836863 5.39287,-10.715273 0.0682,-0.44 0.14356,-0.05917 0.16753,0.846291 0.0602,2.274388 -0.97629,5.396263 -2.52622,7.608867 -0.71634,1.022602 -1.24204,1.919667 -1.16823,1.993479 0.2138,0.213798 7.35897,-2.499517 7.97928,-3.030064 0.3087,-0.26402 1.19677,-1.57321 1.97351,-2.909306 0.77673,-1.336096 1.65536,-2.717267 1.9525,-3.069267 0.51903,-0.614861 0.52204,-0.608576 0.0766,0.16 -0.25503,0.44 -1.1514,1.995939 -1.99194,3.457642 -0.84053,1.461702 -1.87195,2.882847 -2.29204,3.158099 -0.42009,0.275254 -2.67091,1.198364 -5.00182,2.05136 -3.08642,1.129468 -4.44086,1.793007 -4.98448,2.441897 -0.41056,0.490051 -1.73876,2.893229 -2.95157,5.340396 -1.2128,2.447168 -2.78489,5.137002 -3.49353,5.977411 -0.70869,0.840407 -1.28848,1.610179 -1.28848,1.710605 0,0.423094 1.01428,0.11241 3.19552,-0.978816 1.6983,-0.849625 3.23098,-2.030806 5.70935,-4.4 3.48016,-3.326847 3.45214,-3.020163 -0.0847,0.927469 -2.42163,2.702864 -3.98274,3.828794 -6.65037,4.79647 l -2.0098,0.729047 1.83643,0.230636 c 1.01004,0.126848 3.31404,0.168708 5.12001,0.09301 2.84525,-0.119248 3.57671,-0.27312 5.47968,-1.152733 1.20786,-0.558314 2.03596,-0.822137 1.84021,-0.586278 -0.19574,0.235859 -1.38591,0.9036 -2.64482,1.483868 l -2.28892,1.055034 -4.37947,-0.199222 c -6.87853,-0.312903 -7.70193,-0.08138 -13.068416,3.674611 -1.97386,1.381497 -2.31161,1.748211 -2.13262,2.315475 0.11697,0.370707 0.29104,1.873923 0.38681,3.340476 0.14816,2.268679 0.25149,2.641623 0.69262,2.49993 0.28517,-0.09159 2.24649,-0.831831 4.35849,-1.644967 4.332956,-1.668227 6.059766,-2.598143 7.944566,-4.278284 l 1.30483,-1.163142 -0.9447,1.224963 c -1.52592,1.978608 -4.05221,3.572399 -7.911586,4.991292 -4.13406,1.519872 -5.13494,2.08233 -8.01022,4.501462 -1.33455,1.122826 -1.95438,1.841056 -1.71603,1.988432 0.20523,0.126893 1.38114,0.330951 2.61314,0.453466 2.00492,0.199376 2.14307,0.255283 1.31646,0.532745 -0.64572,0.216743 -1.46395,0.179936 -2.72,-0.122358 -0.98805,-0.237792 -2.14297,-0.391344 -2.56647,-0.341226 -1.25495,0.148516 -3.64116,1.501402 -5.99,3.396096 -1.209997,0.976047 -3.279994,2.328114 -4.599994,3.004594 -4.349936,2.229283 -5.319005,4.742543 -5.016627,13.010533 0.19904,5.44248 1.060934,10.53477 2.616515,15.45905 l 0.805245,2.54905 1.357433,0.18164 c 0.746589,0.0999 2.76313,0.27733 4.481198,0.39428 2.92769,0.1993 3.25911,0.29561 5.28,1.53431 l 2.15624,1.32165 3.36,-0.0178 c 1.848,-0.01 4.8,-0.0773 6.56,-0.15009 2.821336,-0.11664 3.370386,-0.0482 4.639996,0.57841 1.21315,0.59876 1.28876,0.6849 0.48,0.54681 -2.72317,-0.46496 -7.204706,-0.5399 -8.830456,-0.14767 l -1.72954,0.41727 1.67507,0.3796 c 1.78055,0.4035 4.06411,1.78071 4.3988,2.6529 0.15231,0.3969 0.0211,0.36093 -0.53611,-0.14698 -1.2338,-1.12462 -2.04536,-1.39246 -4.21927,-1.39246 -1.95762,0 -2.10902,-0.0532 -2.50448,-0.88 -0.34536,-0.72205 -0.68523,-0.91048 -1.89355,-1.04983 -0.80996,-0.0934 -2.45316,-0.66752 -3.65155,-1.27579 -1.92877,-0.97899 -2.46389,-1.10595 -4.66145,-1.10595 -2.721682,0 -3.163707,0.17837 -2.493064,1.00605 0.275414,0.3399 -0.226592,0.17005 -1.3144,-0.44472 -1.993891,-1.12684 -5.328026,-1.82617 -4.48,-0.93968 0.264,0.27598 1.260918,0.92805 2.215376,1.44906 1.677946,0.91593 1.700253,0.94552 0.674096,0.89407 -1.45201,-0.0728 -1.517686,0.45925 -0.225779,1.82907 1.084205,1.14959 1.110726,1.15778 3.774093,1.16591 2.502378,0.008 2.798238,0.0821 4.412598,1.11068 0.95171,0.60637 2.6285,1.40136 3.72619,1.76665 1.84092,0.61262 4.61124,2.67333 4.17728,3.10729 -0.0905,0.0905 -1.20468,-0.5008 -2.47586,-1.31409 -1.27119,-0.8133 -2.42977,-1.47872 -2.57462,-1.47872 -0.54807,0 -0.22308,0.68281 0.93663,1.96785 1.19974,1.3294 1.19979,1.32958 0.2369,0.83247 -0.5297,-0.27347 -1.43762,-1.15798 -2.01761,-1.96559 -1.06359,-1.48104 -3.0051,-2.82902 -4.60987,-3.2006 -0.47881,-0.11088 -1.477642,-0.0652 -2.219619,0.10152 -1.871629,0.42053 -3.034931,-0.13573 -5.734842,-2.74228 -2.330304,-2.24972 -2.826189,-2.16247 -1.308755,0.23027 1.073162,1.69221 2.276531,2.75334 4.685187,4.13144 1.6756,0.95868 2.68992,2.07027 2.271194,2.489 -0.104096,0.1041 -0.583763,-0.18039 -1.065927,-0.6322 -0.482163,-0.45181 -1.469433,-1.11842 -2.193932,-1.48138 -0.7245,-0.36295 -1.7685,-1.03959 -2.32,-1.50365 -2.311338,-1.94486 -0.38481,1.00788 2.084288,3.19454 1.362985,1.20707 1.864889,1.45861 2.910403,1.45861 0.886825,0 1.445081,0.20381 1.872983,0.68378 l 0.6096,0.68379 -1.024113,-0.52378 c -1.246192,-0.63736 -2.335891,-0.67821 -2.335891,-0.0876 0,0.23992 0.71383,1.10392 1.586291,1.92 0.872461,0.81609 1.484463,1.48325 1.360003,1.4826 -0.581404,-0.003 -2.253632,-1.30811 -3.266294,-2.54906 -0.616,-0.75487 -2.005683,-2.25388 -3.088182,-3.33112 -1.543405,-1.53591 -2.281124,-2.632 -3.418157,-5.07863 -0.797485,-1.716 -1.620055,-3.12 -1.82793,-3.12 -0.265654,0 -0.341369,0.64742 -0.254829,2.17899 0.112461,1.9903 0.247216,2.34706 1.556112,4.11984 0.788141,1.06747 1.674717,2.3847 1.970167,2.92718 0.297833,0.54687 1.034896,1.19429 1.654243,1.45307 0.614384,0.25671 1.271891,0.75604 1.46113,1.10964 0.189235,0.35359 1.208825,1.1682 2.265756,1.81025 2.008391,1.22004 2.60344,1.81001 0.977581,0.96925 -1.063593,-0.55001 -1.935891,-0.636 -1.935891,-0.19084 0,0.16356 0.827306,0.92619 1.838458,1.69474 1.011152,0.76855 1.889466,1.67874 1.951816,2.02262 0.0931,0.51365 -0.078,0.44637 -0.958456,-0.37688 -0.589501,-0.55117 -1.683818,-1.38098 -2.431818,-1.84401 -1.102784,-0.68265 -1.36,-1.02055 -1.36,-1.7866 0,-0.95495 -0.70576,-1.60725 -1.738963,-1.60725 -0.403843,0 -0.501037,0.40758 -0.501037,2.10104 0,1.15557 0.161626,2.41557 0.359171,2.8 0.296058,0.57615 0.284813,0.62868 -0.064,0.29896 -0.232745,-0.22 -0.538371,-0.4 -0.679171,-0.4 -0.367328,0 -0.316006,1.84996 0.0714,2.57384 0.264169,0.4936 0.233267,0.57563 -0.16,0.42472 -0.898535,-0.3448 -0.532586,1.04681 0.646352,2.45791 0.623568,0.74636 1.286662,1.64272 1.473545,1.99192 0.325056,0.60737 0.307901,0.61256 -0.395715,0.11973 -0.676877,-0.47411 -0.781577,-0.47347 -1.313545,0.008 -0.542148,0.49064 -0.578173,0.47534 -0.580151,-0.24647 -0.0012,-0.42329 -0.288211,-1.20161 -0.637891,-1.72961 -0.357616,-0.53998 -0.636704,-1.50135 -0.637891,-2.19732 -0.0019,-1.0762 -0.08482,-1.21569 -0.637306,-1.07122 -0.596118,0.15589 -0.586275,0.0826 0.16,-1.19079 0.43736,-0.74629 0.795197,-1.59118 0.795197,-1.87752 0,-0.49426 -0.894394,-1.18315 -1.536099,-1.18315 -0.324483,0 -1.987949,4.31817 -1.985443,5.15399 9.6e-4,0.28269 0.512137,1.18269 1.136201,2 0.891415,1.16745 1.017984,1.48601 0.590403,1.48601 -0.500694,0 -0.497897,0.0512 0.03494,0.64 0.318557,0.352 0.423325,0.64 0.232822,0.64 -0.392019,0 -1.245459,-1.0511 -2.069836,-2.54921 -0.306359,-0.55674 -0.702359,-0.92242 -0.88,-0.81263 -0.85824,0.53042 -0.0224,4.727 1.360928,6.8329 1.933171,2.94295 2.031254,3.12559 1.417001,2.6385 -0.806249,-0.63933 -1.077081,-0.18422 -1.323443,2.22396 -0.188445,1.84204 -0.132301,2.1976 0.467405,2.96 0.650883,0.82746 0.556393,1.12356 -0.198362,0.62158 z m 3.513485,-23.1551 c 0.316614,-1.58306 0.23809,-2.50301 -0.312723,-3.66376 -0.603197,-1.27114 -2.913962,-3.97624 -3.396608,-3.97624 -0.603213,0 -0.0215,2.54051 0.840486,3.67063 0.551463,0.723 0.828845,1.48851 0.828845,2.2874 0,0.79239 0.236614,1.45259 0.695779,1.94135 0.914061,0.97297 1.105123,0.9361 1.344221,-0.25938 z m 4.918995,-51.37692 c 1.012554,-0.699088 2.345005,-1.461738 2.961009,-1.694778 2.62529,-0.993184 8.21846,-4.102137 9.552,-5.309471 l 1.44458,-1.307869 -0.0573,-2.375475 c -0.0643,-2.666144 -0.30685,-4.135478 -0.68271,-4.135478 -1.02437,0 -14.683231,9.002121 -17.039887,11.23045 -1.157734,1.094691 -1.216707,1.247888 -1.216707,3.160714 v 2.010262 L 74.199945,97.5861 c 1.183507,-0.113718 2.077367,-0.48392 3.44,-1.42471 z m -4.053744,-8.103072 c 0.512531,0 2.876583,-2.314204 3.407802,-3.335952 0.281389,-0.541225 0.695833,-2.216636 0.920982,-3.723135 0.410525,-2.746845 1.356087,-5.752752 2.152055,-6.841299 0.234102,-0.320157 -0.05872,0.900489 -0.650711,2.712547 -1.226873,3.755372 -1.716342,7.027839 -1.051171,7.027839 0.228461,0 0.906067,-0.374265 1.505795,-0.831699 0.599721,-0.457433 1.961141,-1.172934 3.025371,-1.59 1.06423,-0.417068 2.13513,-0.924435 2.37979,-1.127484 1.06109,-0.880631 0.20165,-3.593191 -2.93149,-9.252237 -0.99697,-1.800723 -1.89147,-3.890563 -2.071444,-4.839542 -0.174211,-0.918621 -0.351734,-1.700076 -0.394489,-1.736566 -0.229011,-0.195434 -7.301232,4.166345 -8.345082,5.146812 -2.888621,2.713226 -3.795299,7.374067 -2.457065,12.630717 1.19231,4.683475 2.290473,6.392748 3.790579,5.89999 0.234393,-0.077 0.557977,-0.139991 0.719078,-0.139991 z m -9.410432,-6.587465 c 0.341943,-0.891085 -0.51831,-3.798374 -1.745555,-5.899241 -1.489475,-2.549763 -5.800195,-6.978115 -9.296973,-9.550675 -3.040797,-2.237094 -3.063705,-2.603904 -0.0406,-0.649974 3.112233,2.011532 4.851805,3.603993 7.856755,7.192326 1.515962,1.810272 2.940042,3.36191 3.164618,3.448089 0.311145,0.119399 0.442243,-0.694109 0.550844,-3.418185 0.145085,-3.639098 0.459988,-4.728573 1.901338,-6.578029 0.327116,-0.419734 0.594754,-1.218508 0.594754,-1.775056 0,-1.194636 -1.298378,-2.559014 -4.417507,-4.64206 -2.588064,-1.728387 -7.006896,-5.460419 -9.653248,-8.152886 -1.138915,-1.158765 -2.169399,-2.106842 -2.289962,-2.106842 -0.120563,0 -1.198214,1.014074 -2.394777,2.253501 -1.196564,1.239424 -3.870128,3.556992 -5.941255,5.150153 -3.143363,2.417946 -3.897728,3.169309 -4.56468,4.546499 -2.325861,4.802682 -1.05417,7.516682 5.421429,11.57024 3.840906,2.40431 6.689898,3.726668 11.63655,5.401103 2.266493,0.767204 5.039469,1.915504 6.162173,2.551776 2.277735,1.290867 2.772749,1.397651 3.056096,0.659261 z M 54.257824,65.128505 c -0.325731,-0.325728 -0.260873,-1.670009 0.114404,-2.371222 0.182192,-0.340429 0.246844,-0.618963 0.143673,-0.618963 -0.103174,0 -0.400598,0.509804 -0.660944,1.132899 -0.51047,1.221728 -1.093987,1.217869 -1.093987,-0.0072 0,-1.19673 1.505546,-2.676467 3.76592,-3.70137 1.14543,-0.519363 2.125632,-0.944297 2.178221,-0.944297 0.153056,0 -0.21504,2.308579 -0.539418,3.383068 -0.491926,1.629485 -3.221373,3.813616 -3.907869,3.127117 z m 35.78338,14.489212 c 0.56119,-0.410349 0.57623,-0.613597 0.21905,-2.96 -0.21093,-1.38567 -0.38256,-3.39471 -0.3814,-4.464537 0.002,-2.104045 0.60932,-3.310867 3.04559,-6.054861 1.11499,-1.255823 1.10989,-1.237692 -0.27022,0.96 -2.01972,3.216224 -2.45325,4.156778 -2.45325,5.322317 0,1.334384 1.26571,6.037683 1.62481,6.037683 0.47184,0 7.74608,-5.629533 9.161926,-7.090419 1.63497,-1.686957 2.33326,-3.537107 2.33326,-6.18206 0,-3.111696 -1.07643,-5.480797 -3.20319,-7.049869 -1.092476,-0.806006 -7.662236,-3.677651 -8.413756,-3.677651 -0.24017,0 -0.98653,0.798362 -1.65857,1.774134 -1.46275,2.123853 -3.59483,4.091642 -6.59241,6.084429 -2.06893,1.375424 -2.21196,1.546649 -2.21029,2.646013 0.003,2.006025 0.57691,3.400598 2.71568,6.599526 1.40066,2.094956 2.28479,3.830332 2.74732,5.392479 0.3751,1.26688 0.8286,2.483418 1.00779,2.703418 0.43056,0.528636 1.57652,0.508649 2.32766,-0.0406 z m -7.20023,-11.093942 c 0,-0.36 0.35345,-1.008 0.78545,-1.44 0.432,-0.432 0.65383,-0.785456 0.49295,-0.785456 -0.16088,0 -0.64043,0.37522 -1.06567,0.833821 -0.8409,0.90688 -1.25433,0.700672 -0.83238,-0.415165 0.49465,-1.308054 1.7501,-1.811743 4.6529,-1.866761 1.47771,-0.028 2.68196,0.03436 2.67612,0.138592 -0.006,0.104234 -0.40749,0.763577 -0.89254,1.465216 -1.25068,1.809149 -2.73685,2.724297 -4.42416,2.724297 -1.18966,0 -1.39267,-0.09542 -1.39267,-0.654544 z m 2.79333,-2.41879 c -0.10634,-0.106333 -0.38234,-0.117699 -0.61333,-0.02525 -0.25528,0.10215 -0.17945,0.177978 0.19333,0.193331 0.33733,0.01389 0.52633,-0.06174 0.42,-0.16807 z m -9.610928,-0.66377 c 2.007725,-1.175407 3.747978,-2.291407 3.867232,-2.479999 0.119255,-0.188592 0.458282,-1.286999 0.753396,-2.440903 0.63735,-2.492035 1.49255,-4.633075 1.74841,-4.377212 0.10068,0.100675 -0.12768,1.423376 -0.50746,2.939334 -0.37979,1.515958 -0.64259,2.900073 -0.58401,3.075814 0.0586,0.175738 1.29434,-0.493123 2.74612,-1.486358 2.63242,-1.800963 4.85692,-3.989433 5.90888,-5.813171 l 0.55498,-0.962141 -2.78618,-1.239129 c -1.5324,-0.68152 -3.6336,-1.785978 -4.66932,-2.454349 -1.03573,-0.668371 -1.97571,-1.172371 -2.08884,-1.12 -1.283803,0.594272 -4.931697,3.022381 -5.136395,3.418883 -0.146611,0.283984 -0.338905,1.845229 -0.427321,3.469434 -0.149565,2.747459 -0.251722,3.106214 -1.467031,5.151878 -1.350329,2.272944 -2.614867,5.168163 -2.614867,5.98687 0,0.850925 1.011219,0.492029 4.702406,-1.668951 z M 53.72097,147.44558 c 0,-0.55086 0.998589,-2.03446 1.956829,-2.90727 l 1.053968,-0.96 -0.924119,1.28 c -1.568368,2.17235 -2.086678,2.815 -2.086678,2.58727 z M 38.475539,136.91214 c 0.112987,-0.32239 0.205431,-0.64639 0.205431,-0.72 0,-0.0736 0.764477,-0.13383 1.698838,-0.13383 1.020676,0 1.946804,-0.19161 2.32,-0.48 0.604471,-0.4671 0.605156,-0.4924 0.02538,-0.94144 -1.090969,-0.84498 -5.872094,-1.02284 -8.465821,-0.31495 -0.296116,0.0808 0.03761,-0.13965 0.741607,-0.48994 1.803463,-0.89734 5.254384,-0.87821 7.2,0.0399 2.72391,1.2854 6.170685,0.67806 8.915261,-1.57091 1.336947,-1.09553 1.628099,-1.19474 3.707808,-1.26347 l 2.256931,-0.0746 -1.466176,0.47109 c -1.115962,0.35856 -1.904365,0.96711 -3.300666,2.54769 -2.171142,2.45769 -2.983964,2.7527 -1.313158,0.4766 1.274099,-1.73567 1.23584,-1.95392 -0.167357,-0.95476 -1.64216,1.16932 -3.648806,1.9006 -5.234873,1.90774 -1.023908,0.005 -1.940957,0.24109 -2.661319,0.6863 -0.808141,0.49946 -1.423382,0.63578 -2.324157,0.51496 -0.870848,-0.11681 -1.386713,-0.0125 -1.784112,0.36072 -0.52039,0.48874 -0.54484,0.48451 -0.353613,-0.0611 z m 43.165435,-1.80049 c -1.1,-0.52039 -2.000004,-1.01515 -2.000004,-1.09946 0,-0.0843 1.214184,0.25712 2.698184,0.75875 1.484,0.50162 2.96,0.97979 3.28,1.06259 0.32,0.0828 0.006,0.16713 -0.69818,0.18741 -0.81631,0.0235 -2.00453,-0.30589 -3.28,-0.90929 z M 24.969934,82.218319 c -0.553733,-1.1 -1.083,-2.432 -1.176149,-2.96 -0.201855,-1.144183 0.434509,-2.510279 1.241775,-2.665744 0.498921,-0.09608 0.527981,-0.01699 0.21121,0.574905 -0.202019,0.377476 -0.297336,0.858336 -0.211816,1.06858 0.09222,0.226707 0.16577,0.17456 0.180753,-0.128144 0.03566,-0.720548 1.189261,-1.682583 1.756573,-1.464887 0.641567,0.246192 1.237494,2.590016 0.976861,3.842067 -0.185706,0.892109 -1.611721,3.733222 -1.873784,3.733222 -0.05425,0 -0.551689,-0.899999 -1.105423,-1.999999 z M 22.30097,74.719724 c 0.231,-0.09244 0.507,-0.08107 0.613333,0.02525 0.106334,0.106333 -0.08267,0.181965 -0.42,0.16807 -0.372781,-0.01536 -0.448608,-0.09118 -0.193333,-0.193333 z m -4.58,-16.176879 c -0.704,-0.18113 -1.339746,-0.381994 -1.41277,-0.446362 -0.07302,-0.06437 0.574977,-0.805475 1.440001,-1.646902 1.897189,-1.845434 3.370443,-2.534714 4.536587,-2.122496 0.991683,0.35055 1.323114,1.083158 0.502849,1.11152 -0.500074,0.01728 -0.485227,0.06121 0.100588,0.297574 0.377991,0.152509 0.781743,0.430176 0.897228,0.617034 0.326065,0.527584 -1.206645,1.854665 -2.583611,2.236995 -1.441717,0.40031 -1.757613,0.396013 -3.480872,-0.04736 z m 90.71501,-2.116861 c -1.20669,-0.64104 -2.69842,-2.59264 -3.04881,-3.98871 -0.20962,-0.835178 -0.18364,-0.857344 0.63847,-0.544778 0.47134,0.179203 1.35625,0.325824 1.96644,0.325824 2.18412,0 4.28889,1.448298 4.28889,2.951203 0,0.748432 -0.54524,0.731466 -0.78516,-0.02442 -0.21407,-0.674493 -2.27205,-1.896227 -2.61554,-1.552736 -0.12428,0.124282 -0.007,0.225965 0.26064,0.225965 0.8069,0 2.18006,1.502074 2.18006,2.38472 0,0.677178 -0.14991,0.81528 -0.88499,0.81528 -0.48675,0 -1.38675,-0.26655 -2,-0.592336 z M 64.790068,51.754925 c -2.636272,-0.961414 -2.939194,-2.297229 -0.622429,-2.744761 l 1.233331,-0.238244 -1.399181,-0.0368 c -1.161776,-0.03056 -1.336013,-0.112918 -1.026877,-0.485404 1.079741,-1.301005 3.552122,-0.619463 6.003831,1.655033 l 1.337773,1.241078 -1.017773,0.356916 c -1.82553,0.640182 -3.229437,0.718707 -4.508675,0.252182 z m -4.006493,-0.503942 c -0.01242,-0.09204 0.337395,-1.586503 0.777395,-3.321034 1.228954,-4.844681 1.059446,-7.300595 -0.708947,-10.271628 l -0.761872,-1.28 0.843344,0.96 c 2.312329,2.632185 2.963779,6.096848 1.780605,9.469904 -0.653312,1.862492 -1.89353,4.716633 -1.930525,4.442758 z M 31.182303,45.476986 c -0.835152,-1.775513 -1.455366,-3.291299 -1.378254,-3.368412 0.07711,-0.07711 0.817327,1.318675 1.644921,3.101747 0.827594,1.783071 1.447808,3.298857 1.378254,3.368412 -0.06955,0.06956 -0.809768,-1.32623 -1.644921,-3.101747 z m 87.291417,0.983475 c -1.16327,-0.469347 -1.24306,-1.008688 -0.27271,-1.84334 0.63122,-0.54296 1.17578,-0.736282 1.81127,-0.643012 0.49978,0.07335 0.90869,0.0143 0.90869,-0.131209 0,-0.441962 -1.89119,-0.295914 -2.89589,0.223638 -1.10898,0.573475 -1.24319,0.135354 -0.24377,-0.79575 0.91931,-0.856467 3.07418,-0.862134 4.73966,-0.01248 0.68998,0.352 1.54824,0.64 1.90725,0.64 1.39171,0 0.3748,1.177638 -1.913,2.215376 -1.51452,0.686979 -2.90303,0.806115 -4.0415,0.346765 z M 32.28097,44.798945 c 0,-0.384656 0.324,-1.052199 0.72,-1.483431 0.715116,-0.778732 0.715305,-0.781612 0.02789,-0.424291 -0.380661,0.197872 -0.758661,0.541414 -0.84,0.76343 -0.106425,0.290493 -0.251395,0.30689 -0.517067,0.05849 -0.571666,-0.534502 0.745233,-1.980758 2.146336,-2.357168 0.669587,-0.179885 2.069342,-0.217945 3.22586,-0.08771 l 2.043018,0.230058 -1.09167,1.44 c -1.272057,1.677945 -2.825687,2.558803 -4.514365,2.559504 -1.020778,3.2e-4 -1.2,-0.103959 -1.2,-0.69888 z m 83.90238,-1.700624 c 0.007,-0.528 0.0782,-0.705261 0.15938,-0.393911 0.0811,0.311351 0.0758,0.743351 -0.0119,0.96 -0.0876,0.21665 -0.15403,-0.03809 -0.14751,-0.566089 z M 79.96097,41.780564 c -1.043738,-0.703168 -2.88,-2.427408 -2.88,-2.704304 0,-0.261654 2.783834,-0.681197 4.874974,-0.734688 1.2502,-0.03197 1.66669,0.11296 2.38303,0.829299 1.0219,1.021895 0.79026,1.522352 -0.35676,0.770797 -0.4393,-0.28784 -0.98379,-0.522809 -1.20999,-0.52215 -0.22619,6.4e-4 0.0663,0.292339 0.64993,0.648179 0.77539,0.472739 1.03393,0.838688 0.96,1.358803 -0.0887,0.623853 -0.31869,0.723018 -1.86118,0.802422 -1.24042,0.06385 -1.99618,-0.06851 -2.560004,-0.448358 z m 28.88,-3.012214 c -0.81328,-0.326899 -0.84738,-0.434099 -0.40246,-1.26544 0.38776,-0.724535 2.25038,-1.384259 3.04611,-1.078906 0.40069,0.153754 0.50943,0.106736 0.34996,-0.151302 -0.34032,-0.550643 -1.49677,-0.456723 -2.84595,0.231123 -1.43977,0.734038 -1.66727,0.138208 -0.3445,-0.902278 1.07389,-0.844727 2.66409,-0.850189 4.85707,-0.01667 0.93513,0.35542 1.83513,0.562851 2,0.460953 0.75058,-0.463884 0.19209,0.526403 -0.74023,1.312547 -1.90036,1.602407 -4.1238,2.131968 -5.92,1.409984 z m -61.44,-0.700586 c -0.396,-0.190985 -0.72,-0.518921 -0.72,-0.728749 0,-0.46432 1.034397,-1.440694 1.52631,-1.440694 0.195757,0 0.449485,-0.151392 0.563844,-0.336429 0.114358,-0.185033 -0.331255,-0.111142 -0.99025,0.164202 -1.50063,0.627005 -1.753206,0.408259 -0.755213,-0.654054 0.678397,-0.722122 0.971376,-0.80632 2.374592,-0.682445 1.255555,0.110841 4.107719,0.932003 4.926048,1.418253 0.251815,0.149625 -1.439568,1.422822 -2.685331,2.021395 -1.41017,0.677568 -3.129142,0.774265 -4.24,0.238521 z M 87.437664,26.633487 c -1.99951,-0.476955 -3.91104,-2.358673 -3.49565,-3.441147 0.14763,-0.384735 0.52995,-0.460402 1.70464,-0.337379 1.47762,0.154748 1.49105,0.148337 0.55432,-0.264591 -0.528,-0.23275 -1.1485,-0.429677 -1.37889,-0.437615 -0.93081,-0.03207 0.0531,-0.654433 1.03462,-0.654433 1.38351,0 2.57732,0.971836 3.54879,2.888922 0.43082,0.850182 0.93005,1.636474 1.10939,1.747317 1.15579,0.714315 -0.82672,1.03575 -3.07722,0.498926 z M 55.24097,24.50377 c -1.012,-0.471584 -1.84,-0.966643 -1.84,-1.100132 0,-0.13349 0.396,-0.401507 0.88,-0.595594 0.484,-0.194087 1.51465,-0.712173 2.29033,-1.151304 1.784518,-1.010253 2.952278,-1.01185 4.091827,-0.0056 l 0.897843,0.792826 -1.6,-0.147291 c -1.23256,-0.113465 -1.373123,-0.0868 -0.612067,0.116113 1.362166,0.363182 1.732067,0.633858 1.732067,1.267443 0,0.736832 -1.014954,1.318355 -2.646995,1.516607 -1.037053,0.125976 -1.782679,-0.03587 -3.193005,-0.693068 z"
     id="path74"
     inkscapeConnector-curvature="0" />
</svg>
