<?xml version="1.0" encoding="UTF-8" standalone="no"?>
<!-- Created with Inkscape (http://www.inkscape.org/) -->

<svg
   xmlnsDc="http://purl.org/dc/elements/1.1/"
   xmlnsCc="http://creativecommons.org/ns#"
   xmlnsRdf="http://www.w3.org/1999/02/22-rdf-syntax-ns#"
   xmlnsSvg="http://www.w3.org/2000/svg"
   xmlns="http://www.w3.org/2000/svg"
   xmlnsSodipodi="http://sodipodi.sourceforge.net/DTD/sodipodi-0.dtd"
   xmlnsInkscape="http://www.inkscape.org/namespaces/inkscape"
   version="1.1"
   id="svg80"
   width="70%"
   height="200 "
   viewBox="0 0 2559 853"
   sodipodiDocname="logo-horizontal.svg"
   inkscapeVersion="0.92.4 (f8dce91, 2019-08-02)">
  <metadata
     id="metadata86">
    <rdfRDF>
      <ccWork
         rdfAbout="">
        <dcFormat>image/svg+xml</dcFormat>
        <dcType
           rdfResource="http://purl.org/dc/dcmitype/StillImage" />
        <dctitle></dctitle>
      </ccWork>
    </rdfRDF>
  </metadata>
  <defs
     id="defs84" />
  <sodipodiNamedview
     pagecolor="#ffffff"
     bordercolor="#666666"
     borderopacity="1"
     objecttolerance="10"
     gridtolerance="10"
     guidetolerance="10"
     inkscapePageopacity="0"
     inkscapePageshadow="2"
     inkscapeWindow-width="3200"
     inkscapeWindow-height="1689"
     id="namedview82"
     showgrid="false"
     inkscapeZoom="0.95545135"
     inkscapeCx="1278.4534"
     inkscapeCy="426.5"
     inkscapeWindow-x="0"
     inkscapeWindow-y="55"
     inkscapeWindow-maximized="1"
     inkscapeCurrent-layer="svg80" />
  <g
     id="g135">
    <path
       style="fill:#cbd0d2"
       d="M 869,549.0619 C 830.59982,545.01528 802.87171,522.638 793.95658,488.5 c -3.03065,-11.60506 -3.05596,-30.9057 -0.0556,-42.4048 6.11261,-23.42695 21.77669,-42.337 43.59901,-52.63376 12.45383,-5.87628 19.79621,-7.59857 34.9497,-8.19806 14.43586,-0.57111 22.88652,0.50842 34.5503,4.4136 28.09327,9.40598 47.2324,32.36254 51.95937,62.32302 1.6599,10.5208 1.35243,26.54534 -0.54576,28.44353 -1.41317,1.41318 -7.92481,1.58136 -59.63548,1.54024 -31.92699,-0.0254 -58.20054,0.10531 -58.38566,0.29042 -0.18512,0.18512 0.93503,3.01166 2.48922,6.2812 3.32712,6.99925 10.70351,14.28579 17.73271,17.5167 18.03948,8.29171 43.14486,5.45333 57.77074,-6.53149 2.37647,-1.94733 4.74317,-3.5406 5.25934,-3.5406 0.51617,0 4.77254,4.1625 9.45861,9.25 C 946.77483,520.09294 949,522.68316 949,523.75484 c 0,2.57719 -15.31723,13.94664 -24.49252,18.17994 -13.01631,6.00549 -36.96777,9.08084 -55.50748,7.12712 z m 44.84131,-98.62491 c 0.67591,-3.21561 -5.77505,-14.17575 -11.33392,-19.25624 -15.72155,-14.36861 -45.4828,-11.45797 -56.69944,5.54518 -2.50918,3.80363 -7.00587,14.7428 -6.33571,15.413 0.19858,0.19859 16.93606,0.26223 37.1944,0.14143 33.07124,-0.1972 36.86822,-0.38548 37.17467,-1.84337 z M 1318.5,547.52435 c -23.3825,-3.73469 -43.6809,-18.16063 -53.8836,-38.29458 -6.8054,-13.42989 -8.911,-22.93711 -8.8971,-40.17188 0.01,-11.80221 0.3672,-14.7881 2.7618,-23.05789 7.4274,-25.65064 24.4638,-43.4891 49.3277,-51.65004 10.5926,-3.47675 28.315,-4.31421 40.2569,-1.90232 16.5206,3.33663 31.585,12.66167 41.2714,25.54756 l 4.6436,6.17728 0.2596,-48.33624 0.2597,-48.33624 7.7205,-0.29153 c 7.332,-0.27686 7.7484,-0.17621 8.2745,2 0.3047,1.26034 0.4304,50.66653 0.2795,109.79153 L 1410.5,546.5 h -8 -8 l -0.2761,-15.8821 -0.276,-15.88209 -2.9551,4.46131 c -6.7092,10.12907 -19.7374,20.31872 -31.7028,24.79557 -6.2771,2.34855 -21.8084,5.04106 -28.29,4.90435 -2.475,-0.0522 -8.1,-0.66992 -12.5,-1.37269 z m 28.8978,-16.0204 c 21.2479,-4.50147 36.6621,-19.50886 43.6562,-42.50395 2.9581,-9.72536 3.2111,-28.2647 0.5118,-37.5 -6.3476,-21.71779 -21.0104,-37.09317 -41.0658,-43.06149 -9.2328,-2.7476 -26.9147,-2.53223 -36,0.43849 -20.0504,6.55607 -34.6145,22.15956 -39.9186,42.76734 -2.4216,9.40896 -2.1493,28.73031 0.5322,37.74785 7.0384,23.66971 22.6433,37.81697 47.3864,42.96009 4.6866,0.97416 18.52,0.50282 24.8978,-0.84833 z M 1523,547.98151 c -19.7836,-2.70627 -33.3874,-10.38071 -42.5298,-23.99272 -10.6461,-15.85103 -11.627,-23.21432 -11.2553,-84.48879 l 0.2851,-47 h 8 8 l 0.5712,51 c 0.3363,30.03045 1.0013,52.75145 1.6175,55.2597 1.771,7.21007 7.1337,16.86667 12.0885,21.76803 9.5088,9.40619 20.7324,12.97432 38.2228,12.15148 6.325,-0.29756 13.56,-1.20227 16.0778,-2.01047 13.0277,-4.18177 23.5584,-13.10699 29.3923,-24.91112 6.6842,-13.52446 6.7534,-14.16017 7.2427,-66.54681 l 0.4417,-47.2892 8.1728,0.2892 8.1727,0.28919 0.2754,75 c 0.1515,41.25 0.026,76.03119 -0.2794,77.29153 -0.527,2.17614 -0.9438,2.27686 -8.2755,2 L 1591.5,546.5 l -0.2787,-13.82105 -0.2787,-13.82104 -4.4254,6.01152 c -4.9302,6.69727 -12.3974,13.02271 -19.8039,16.77585 -10.7411,5.44292 -29.9205,8.22298 -43.7133,6.33623 z m 192.8688,-0.52013 c -31.1884,-4.85972 -53.5848,-25.09592 -61.9354,-55.96138 -1.7262,-6.38061 -2.1694,-10.83394 -2.1895,-22 -0.022,-12.30256 0.3011,-15.11239 2.6653,-23.17466 4.08,-13.91381 9.6204,-23.34873 19.5907,-33.36204 8.797,-8.83485 18.773,-14.99709 29.0001,-17.91341 2.475,-0.70577 5.85,-1.72914 7.5,-2.27417 1.65,-0.54502 8.658,-1.22438 15.5734,-1.50969 19.4125,-0.80089 32.2373,2.38365 46.1395,11.45701 6.5548,4.27802 16.7447,14.58886 16.773,16.97192 0.01,0.65723 -2.536,3.02106 -5.6528,5.25294 l -5.6669,4.05798 -6.5831,-6.30381 c -7.7519,-7.423 -11.3757,-9.75701 -20.681,-13.32005 -6.088,-2.33111 -8.3765,-2.64943 -19.4021,-2.6988 -8.7558,-0.0392 -14.2475,0.43933 -18.3341,1.59758 -20.6989,5.86669 -36.1959,21.68252 -42.1292,42.99596 -2.4868,8.93301 -2.2044,28.76272 0.5412,37.99551 7.4016,24.8908 24.3803,39.55407 49.9221,43.11428 10.1776,1.41863 24.7568,-0.0674 32.2741,-3.2897 6.9454,-2.97714 16.1876,-9.54426 19.8554,-14.10843 1.7629,-2.19363 3.7139,-3.98842 4.3355,-3.98842 1.8716,0 11.4739,7.39677 11.5055,8.8629 0.053,2.44574 -14.297,15.7051 -20.9705,19.3768 -8.3042,4.56893 -14.3998,6.60536 -25,8.35206 -10.1892,1.67897 -15.689,1.65254 -27.1312,-0.13038 z m 143.3302,-0.0573 c -22.5411,-3.78092 -37.0141,-16.41191 -40.646,-35.47308 -3.9012,-20.47421 5.8486,-38.97155 24.447,-46.38115 10.9171,-4.34936 14.5154,-4.73821 50,-5.40326 l 34.5,-0.64659 -0.073,-9.5 c -0.1164,-15.07369 -2.9743,-24.17284 -10.0536,-32.00878 -4.2344,-4.68695 -13.2842,-9.41496 -21.1536,-11.05159 -8.3211,-1.73054 -26.9524,-0.63039 -35.7195,2.10919 -8.1998,2.56228 -19.5343,8.07355 -24.5,11.91285 -5.8304,4.50781 -6.3964,4.43201 -10.409,-1.39413 -2.0008,-2.90505 -3.3868,-5.90868 -3.08,-6.67473 0.8648,-2.15913 12.1758,-9.4613 20.489,-13.22732 14.3343,-6.49367 22.4824,-8.11137 41,-8.13999 14.424,-0.0223 17.411,0.26085 23.7407,2.25047 19.2796,6.06013 30.252,17.99488 34.9504,38.01589 1.6266,6.93135 1.8089,13.09964 1.8089,61.20814 v 53.5 l -7.4119,0.29708 c -5.2426,0.21013 -7.6618,-0.0826 -8.2657,-1 -0.4697,-0.7134 -0.818,-5.34708 -0.7742,-10.29708 0.044,-4.95 0.051,-9.4653 0.016,-10.034 -0.035,-0.5687 -3.3265,2.16088 -7.314,6.06573 -9.8901,9.68511 -19.0993,13.94428 -35.4416,16.3914 -9.1093,1.36405 -15.659,1.23384 -26.1094,-0.51905 z m 38.0365,-16.30409 c 12.9262,-5.03219 23.485,-14.89777 28.7969,-26.9061 1.7535,-3.96414 1.986,-6.3132 1.7453,-17.63364 L 1927.5,473.5 1902,473.19544 c -26.5444,-0.31703 -41.3061,0.77224 -48.4841,3.57764 -14.648,5.72498 -21.804,18.74701 -18.1468,33.02257 0.8661,3.38072 2.5451,7.62703 3.7311,9.43626 3.2142,4.90338 10.3349,9.91518 17.7822,12.51583 5.959,2.08093 8.0109,2.27481 20.6176,1.94802 11.5236,-0.29871 15.0145,-0.75787 19.7355,-2.59577 z M 2039,547.91453 c -15.509,-2.98579 -24.5415,-10.31569 -30.0857,-24.41453 -2.3533,-5.98448 -2.3608,-6.14354 -2.8868,-61.5 L 2005.5,406.5 1992,406 l -13.5,-0.5 -0.295,-6.72149 -0.2951,-6.72148 13.7951,-0.27852 13.795,-0.27851 0.277,-15.43009 c 0.1722,-9.59242 0.7042,-15.94483 1.4062,-16.79066 0.8046,-0.96947 3.1683,-1.27702 8.223,-1.06991 l 7.0938,0.29066 0.2741,16.73228 0.2741,16.73227 24.2259,0.26773 L 2071.5,392.5 v 6.5 6.5 l -24,0.54566 c -13.2,0.30012 -24.1125,0.63762 -24.25,0.75 -0.8817,0.7207 -0.084,102.87747 0.8364,107.17139 1.5688,7.3153 6.3871,13.92451 12.3869,16.99105 4.255,2.17478 6.2944,2.5419 14.12,2.5419 8.6238,0 9.5685,-0.21678 16.5267,-3.79267 l 7.38,-3.79268 2.2272,2.78048 c 1.2249,1.52926 2.7697,4.09023 3.4328,5.69106 1.1134,2.68817 0.9815,3.09018 -1.7272,5.26083 -9.0213,7.22938 -26.1602,10.82274 -39.4328,8.26751 z m 204.6307,-0.55708 c -32.0204,-5.79673 -54.8826,-28.5134 -61.5486,-61.15667 -1.5126,-7.4074 -1.3128,-26.52711 0.3522,-33.70078 2.6419,-11.38277 3.3537,-13.46042 7.0977,-20.71722 9.6179,-18.64201 24.3612,-31.03497 44.5898,-37.48154 7.5968,-2.42099 9.8704,-2.67422 24.3782,-2.71528 14.0621,-0.0398 16.9084,0.23864 23.5,2.29886 25.9077,8.09752 42.8636,25.36629 51.1708,52.11518 2.0318,6.54226 2.328,9.54318 2.32,23.5 -0.01,14.44936 -0.2659,16.83714 -2.6576,24.63791 -6.1342,20.00748 -19.3879,36.48685 -36.362,45.21172 -16.6967,8.58232 -34.6434,11.30209 -52.8405,8.00782 z m 30.7733,-16.33289 c 10.6932,-2.73487 18.8745,-7.3773 26.5862,-15.08619 7.1025,-7.09982 12.5891,-16.4181 15.567,-26.43837 2.3804,-8.00951 2.4978,-30.46602 0.2019,-38.62096 -5.9681,-21.1989 -19.2062,-35.07663 -40.2185,-42.1618 -8.6742,-2.92486 -27.5466,-2.93789 -36.0812,-0.0249 -27.3497,9.33487 -42.5295,31.09024 -42.4238,60.80065 0.069,19.4519 5.8938,34.36065 18.255,46.72621 6.8754,6.87791 13.8598,11.11887 23.2094,14.09294 10.0974,3.21193 24.0199,3.49611 34.904,0.71244 z M 77,463.53113 v -83.5038 L 44.25,379.76366 11.5,379.5 11.227787,360.07275 c -0.208409,-14.87367 0.02598,-19.61651 1,-20.23469 1.461508,-0.92757 175.101693,-1.12437 178.542943,-0.20235 l 2.27074,0.6084 -0.27074,19.62794 L 192.5,379.5 l -32.74426,0.26366 -32.74426,0.26365 -0.25574,83.23635 L 126.5,546.5 101.75,546.76747 77,547.03494 Z M 213.2456,437.25 213.5,327.5 h 23.5 23.5 l 0.26232,36.75 c 0.15166,21.24647 0.64662,36.75 1.17328,36.75 0.50102,0 2.18298,-1.06593 3.73767,-2.36873 4.97493,-4.16886 16.55116,-9.32656 26.13212,-11.64296 8.02877,-1.94112 11.04697,-2.17557 22,-1.70897 14.27239,0.60801 22.40061,2.58795 32.37541,7.88625 11.72094,6.22581 22.49065,19.84324 26.58759,33.61786 4.17732,14.0449 4.23161,14.92046 4.23161,68.249 v 52.00375 l -23.75,-0.2681 -23.75,-0.2681 -0.54013,-48 c -0.57663,-51.24356 -0.58913,-51.37017 -5.89738,-59.74042 C 317.93954,430.68154 310.0933,427 298,427 c -11.67277,0 -18.54633,2.64156 -25.83235,9.92759 -5.4667,5.4667 -8.70499,12.81153 -10.19556,23.12479 -0.51253,3.54619 -0.94092,24.56012 -0.95198,46.69762 L 261,547 H 236.9956 212.99119 Z M 417.24401,467.26811 417.5,387.5 l 21.92862,-0.27 c 16.87562,-0.20778 22.11437,0.0226 22.73469,1 0.44334,0.6985 0.81296,4.81481 0.82138,9.14736 l 0.0153,7.87736 4.25,-3.90814 c 4.54834,-4.18248 15.86708,-10.90104 21.07658,-12.5106 C 495.60229,386.58804 504.89315,385 510.76913,385 h 6.26987 l -0.2695,21.75 -0.2695,21.75 -11,0.63035 c -6.05,0.34669 -12.67466,1.0839 -14.72146,1.63825 -8.14275,2.20535 -16.5007,8.92587 -20.34431,16.35859 -4.82356,9.32773 -4.79803,9.065 -5.38065,55.37281 l -0.55358,44 -23.75599,0.26811 -23.75599,0.26812 z m 125.36298,78.1501 c -1.10584,-2.88176 -0.69125,-154.39225 0.42819,-156.48395 0.97733,-1.82614 2.31882,-1.93426 24,-1.93426 L 590,387 v 80 80 h -23.39301 c -20.40888,0 -23.47044,-0.20178 -24,-1.58179 z M 673.08852,544.75 c -1.41241,-3.68679 -7.36551,-18.01873 -16.09571,-38.75 -4.51644,-10.725 -11.04751,-26.25 -14.51351,-34.5 -3.46599,-8.25 -9.98875,-23.775 -14.49503,-34.5 -17.54302,-41.75266 -20.09906,-48.28521 -19.23213,-49.15214 0.4867,-0.4867 11.57071,-0.76408 24.63113,-0.61639 l 23.74622,0.26853 21.08209,51.78439 c 11.59515,28.48141 21.50625,51.643 22.02467,51.47019 0.51842,-0.1728 3.19832,-5.70078 5.95532,-12.28439 2.75701,-6.5836 8.60801,-20.52019 13.00222,-30.97019 4.39422,-10.45 10.61184,-25.3 13.81694,-33 3.2051,-7.7 7.19504,-17.0375 8.86654,-20.75 l 3.03908,-6.75 h 22.07321 c 17.00811,0 22.18588,0.29362 22.56423,1.27957 0.47795,1.24552 -1.48747,6.32382 -12.85702,33.22043 -3.0224,7.15 -9.18795,21.775 -13.70122,32.5 -4.51328,10.725 -10.68315,25.35 -13.71084,32.5 -3.02769,7.15 -8.33347,19.75 -11.79064,28 -3.45717,8.25 -7.97454,18.9375 -10.03862,23.75 l -3.75286,8.75 h -24.87605 c -24.87531,0 -24.87607,-7e-5 -25.73802,-2.25 z M 1082,443.60699 c 0,-93.35841 0.1535,-103.45192 1.5818,-104 2.0762,-0.79673 133.2304,-0.76391 136.2094,0.0341 2.1536,0.57688 2.2738,1.04179 2,7.73635 L 1221.5,354.5 l -61.25,0.25769 -61.25,0.25768 v 39.48378 39.48377 l 54.75,0.25854 54.75,0.25854 0.2936,7.24144 0.2937,7.24144 -54.7937,0.25856 -54.7936,0.25856 -0.2611,41.25 -0.2611,41.25 H 1162.4889 1226 v 7.5 7.5 h -72 -72 z m 1039,25.85095 v -77.54207 l 7.75,0.29207 7.75,0.29206 0.2562,77.25 0.2561,77.25 H 2129.0062 2121 Z M 2380.2438,469.75 2380.5,392.5 h 7.5 7.5 l 0.5,13.97957 0.5,13.97957 3.932,-4.97957 c 9.2527,-11.71792 22.9189,-19.88455 38.5625,-23.04414 6.6711,-1.34737 11.179,-1.57906 21,-1.07931 19.4032,0.98734 29.3321,4.62656 40.4718,14.83415 8.8228,8.08448 13.3426,16.46798 17.4506,32.36794 0.662,2.56244 1.0688,23.20281 1.1036,56 l 0.055,51.94179 -7.9515,0.28905 -7.9514,0.28904 -0.4205,-50.78904 c -0.3596,-43.43722 -0.6604,-51.62381 -2.0781,-56.55585 -6.6667,-23.19387 -24.3106,-34.92964 -50.1856,-33.38073 -16.599,0.99364 -26.9366,5.17925 -36.8759,14.93085 -7.341,7.20236 -11.818,15.31352 -14.6459,26.53435 -1.7733,7.0365 -1.9374,11.5284 -1.9514,53.43233 L 2397,547 h -8.5062 -8.5061 z M 557,365.45308 c -9.78472,-2.73052 -16.53855,-9.14205 -18.91156,-17.95308 -3.47105,-12.8881 2.04525,-24.5981 14.35513,-30.47307 11.87339,-5.66665 26.79714,-3.63647 35.88885,4.8822 5.85867,5.48941 7.06333,8.4678 7.11488,17.59087 0.0517,9.15444 -1.64009,13.62613 -7.29464,19.28068 -7.11964,7.11963 -19.80995,9.83769 -31.15266,6.6724 z M 2120.0057,352.241 c -3.2372,-3.23719 -4.0057,-4.71874 -4.0057,-7.72222 0,-7.22205 4.6999,-13.00324 11,-13.53081 5.2064,-0.43599 7.0305,0.0999 10.395,3.05394 4.0564,3.5616 5.134,7.27999 3.6773,12.68954 -1.5704,5.8321 -4.993,8.5145 -11.5589,9.059 -5.3293,0.44194 -5.6277,0.33054 -9.5077,-3.54945 z"
       id="path149"
       inkscapeConnector-curvature="0" />
    <path
       style="fill:#a9cacc"
       d="m 871.5,548.99098 c -40.29958,-3.03724 -70.3289,-27.39807 -78.03701,-63.30636 -2.17869,-10.14947 -1.92392,-29.5228 0.51648,-39.27466 2.55853,-10.22389 9.73797,-24.30575 16.41212,-32.19098 18.98098,-22.42525 52.85212,-33.66885 83.66475,-27.77269 18.45922,3.53226 30.14401,9.65602 42.95266,22.51061 10.01561,10.05152 14.55083,17.39725 18.88949,30.59545 3.31155,10.07373 5.12601,30.07513 3.47651,38.32265 L 958.75,481 h -58.70833 c -32.28959,0 -58.96721,0.25887 -59.28361,0.57527 -1.08025,1.08025 1.23516,6.89756 4.81304,12.09249 7.22832,10.4952 19.63669,16.40079 35.9289,17.09986 14.79894,0.635 26.16223,-2.83676 37.42003,-11.43273 2.43767,-1.8613 4.75983,-3.26058 5.16037,-3.10953 0.40054,0.15105 6.23938,6.27611 12.97519,13.61124 l 12.24694,13.33661 -6.4803,6.19969 c -15.85755,15.17088 -40.477,21.94277 -71.32223,19.61808 z m 42.17,-96.76587 c 1.70985,-1.08767 -1.71089,-10.15058 -6.07545,-16.0963 C 900.50915,426.47656 890.82409,422 877.02679,422 c -14.10941,0 -24.36253,4.81383 -31.09494,14.59905 -3.65785,5.3165 -7.26764,14.04861 -6.39278,15.46417 0.68893,1.11471 72.38692,1.27129 74.13093,0.16189 z m 408.83,95.59987 c -21.9699,-2.39079 -40.7133,-13.43141 -53.1796,-31.32498 -9.3873,-13.47419 -13.3208,-27.50158 -13.3197,-47.49963 9e-4,-15.05221 2.8005,-26.90048 9.3335,-39.50037 5.5036,-10.61437 18.1561,-23.50603 28.1864,-28.71912 36.1471,-18.78687 77.024,-9.97597 98.6769,21.26954 1.6077,2.31991 1.7012,-0.0649 1.7654,-45.05042 0.037,-26.125 0.4386,-48.08471 0.8919,-48.79935 0.5787,-0.91235 2.8825,-1.21019 7.7347,-1 l 6.9105,0.29935 0.2544,109.75 0.2544,109.75 h -7.437 c -9.1229,0 -8.8475,0.55888 -8.5495,-17.34735 0.1204,-7.23396 0.1646,-13.52462 0.098,-13.97925 -0.066,-0.45462 -1.7497,1.34538 -3.7408,4 -16.0236,21.36336 -39.7679,31.21074 -67.8798,28.15158 z m 25.5,-16.04815 c 12.2519,-2.90453 25.0322,-11.06438 32.4447,-20.71514 5.398,-7.02781 7.7356,-11.64627 10.6603,-21.06169 3.0546,-9.83356 3.2845,-30.10122 0.448,-39.5 -6.3016,-20.88069 -19.8331,-35.20322 -39.4858,-41.7941 -5.3139,-1.78213 -8.8573,-2.20278 -18.5672,-2.20417 -13.1671,-0.002 -18.5302,1.10465 -28,5.77717 -15.2312,7.51527 -25.9999,20.95972 -31.0147,38.7211 -2.5357,8.98115 -2.5432,29.07423 -0.014,37.5 6.4055,21.33874 20.0169,35.89741 39.4293,42.17324 9.9774,3.22561 23.326,3.65762 34.0994,1.10359 z m 175.5,15.64481 c -12.3789,-1.52186 -18.2958,-3.32988 -26,-7.94476 -9.3445,-5.59745 -16.0732,-12.80493 -20.5171,-21.97688 -7.2934,-15.05332 -7.4441,-16.54663 -7.4646,-74 l -0.018,-51 6.9762,-0.30085 c 5.7062,-0.24607 7.2082,0.0163 8.25,1.44113 0.9891,1.35265 1.2818,12.59474 1.3094,50.30085 0.038,51.99639 0.2316,54.40984 5.2364,65.34177 3.1854,6.95798 11.9933,15.77631 18.9291,18.95161 16.6309,7.61389 38.5676,6.83488 54.4281,-1.93284 6.9761,-3.85642 15.6378,-13.06737 19.318,-20.54289 6.139,-12.46995 6.2759,-13.76705 6.9432,-65.75878 l 0.6096,-47.5 h 7.5 7.5 l 0.2562,77.25 0.2561,77.25 h -7.5061 -7.5062 v -13.44098 c 0,-7.39254 -0.3877,-13.68061 -0.8616,-13.97348 -0.4739,-0.29287 -2.335,1.59307 -4.1358,4.19098 -7.3463,10.59796 -22.0604,19.97868 -35.5026,22.63414 -10.7393,2.12151 -17.0991,2.35114 -28,1.01098 z m 197.1331,0.42828 c -34.2499,-3.37841 -59.9614,-26.26837 -67.2269,-59.84955 -0.787,-3.63754 -1.4059,-12.00411 -1.4055,-19 0,-20.23307 5.0991,-35.56995 16.6809,-50.18354 12.9118,-16.29177 33.3784,-26.28741 56.3184,-27.50517 23.5003,-1.24749 41.7662,4.98728 56.1425,19.16334 8.7929,8.67039 8.8051,8.7295 2.7837,13.48912 -2.8082,2.21973 -5.5827,4.03588 -6.1657,4.03588 -0.5829,0 -3.1907,-2.22248 -5.7951,-4.93884 -5.6951,-5.93981 -13.342,-10.94917 -21.4654,-14.06164 -8.2019,-3.14251 -29.7826,-3.48083 -39,-0.6114 -20.7874,6.47126 -33.9055,19.8232 -40.7154,41.44117 -2.8435,9.02668 -3.0149,29.72813 -0.3202,38.67071 8.6643,28.75314 29.9256,44.73759 59.5481,44.76889 17.2419,0.0182 29.7634,-4.85959 40.7961,-15.89235 3.5071,-3.5071 6.6315,-6.37654 6.9431,-6.37654 0.3116,0 2.9757,1.8189 5.9201,4.04199 6.3359,4.78365 6.26,5.19476 -2.5896,14.0212 -9.9221,9.89612 -25.216,17.00102 -39.6513,18.42034 -11.6887,1.14927 -12.6834,1.1668 -20.7978,0.36639 z M 1862.5,547.49347 c -12.211,-1.75605 -18.1957,-3.77466 -25.3452,-8.54892 -11.9825,-8.00163 -17.9134,-18.06578 -18.8901,-32.05464 -1.2554,-17.98113 6.7662,-32.50718 21.9538,-39.75558 11.8047,-5.63386 16.8925,-6.27635 54.1643,-6.83983 l 33.8828,-0.51225 -0.514,-11.64113 c -0.7765,-17.58765 -5.4652,-28.01037 -15.7516,-35.01495 -6.0023,-4.08733 -11.4366,-5.87892 -21.9036,-7.22125 -17.2564,-2.21306 -39.8672,3.95648 -53.9729,14.72692 -2.4261,1.85249 -4.968,3.36816 -5.6486,3.36816 -1.26,0 -5.2057,-4.69129 -7.345,-8.7329 -1.0923,-2.06355 -0.706,-2.58485 5.0941,-6.87331 7.8889,-5.83296 18.3095,-10.6317 30.6655,-14.12164 8.4831,-2.39603 11.3701,-2.71756 24.6105,-2.7409 11.3161,-0.0199 16.5964,0.40905 21.5,1.74676 19.9809,5.4508 30.9764,16.17297 37.1452,36.22199 0.8926,2.90092 1.3329,19.59326 1.6027,60.75 l 0.3718,56.75 H 1936.5599 1929 v -10.83333 c 0,-5.95834 -0.2734,-11.10672 -0.6075,-11.44086 -0.3342,-0.33414 -2.9802,1.95336 -5.8802,5.08333 -9.8172,10.59596 -22.2121,16.11497 -40.7229,18.13249 -5.3408,0.5821 -9.8408,1.01061 -10,0.95224 -0.1592,-0.0584 -4.3394,-0.68855 -9.2894,-1.4004 z m 32.7704,-15.49526 c 12.5113,-3.86436 23.1487,-12.80259 29.5666,-24.84385 3.1208,-5.85519 3.163,-6.12245 3.163,-20.04434 L 1928,473 l -28.75,0.008 c -30.073,0.008 -37.5821,0.67063 -47.0366,4.15128 -14.4961,5.3367 -21.7895,21.40814 -16.287,35.88953 4.5236,11.90516 13.6172,18.45818 29.0736,20.95086 7.9108,1.2758 22.8609,0.28753 30.2704,-2.00101 z m 146.5498,15.85972 c -15.5843,-1.94456 -27.141,-10.08121 -31.7267,-22.33763 -3.5327,-9.44201 -4.0778,-18.87978 -4.0859,-70.74208 l -0.01,-48.72178 -13.75,-0.27822 -13.75,-0.27822 v -6.5 -6.5 l 13.75,-0.27822 13.75,-0.27822 v -15.28065 c 0,-18.76691 0.059,-18.88686 9.0257,-18.46645 l 6.4743,0.30354 0.2428,14.5 c 0.1335,7.975 0.4796,15.5125 0.7691,16.75 l 0.5262,2.25 h 23.8143 c 13.0978,0 24.0018,0.18576 24.2309,0.4128 0.2292,0.22705 0.2658,3.37705 0.081,7 L 2070.8265,406 h -23.8956 -23.8956 l -0.586,2.3347 c -0.3223,1.28408 -0.4194,25.02158 -0.2158,52.75 0.4088,55.66691 0.5017,56.54069 6.8317,64.19432 4.5909,5.55093 10.0283,7.96848 19.1472,8.51312 8.7773,0.52424 15.7996,-1.24258 22.1288,-5.56762 l 3.844,-2.62678 1.8677,2.45113 c 1.0272,1.34812 2.6437,3.87912 3.5921,5.62443 2.0931,3.8518 1.4479,4.86822 -5.4857,8.64198 -8.8315,4.80669 -21.2221,6.93015 -32.3419,5.54265 z M 2249,547.84227 c -26.2035,-2.8623 -48.3775,-17.91997 -59.4936,-40.40029 -6.0035,-12.14114 -7.8093,-20.81011 -7.9036,-37.94198 -0.076,-13.83962 0.1377,-15.69567 2.7636,-23.99286 3.6124,-11.41427 6.5832,-17.30268 13.0043,-25.77525 19.7148,-26.01368 57.9774,-35.74644 91.2684,-23.21574 18.091,6.80944 34.6867,23.39117 41.4325,41.39766 4.5423,12.12452 5.3751,17.10654 5.3634,32.08619 -0.01,12.714 -0.33,15.55045 -2.5989,23.0283 -4.9556,16.33237 -12.7297,28.43259 -24.5531,38.21623 -10.7959,8.93347 -25.7907,15.05877 -39.783,16.25111 -3.85,0.32808 -8.125,0.72461 -9.5,0.88119 -1.375,0.15659 -5.875,-0.084 -10,-0.53456 z m 27.0292,-16.89998 c 19.1751,-5.56664 34.7789,-21.30814 40.5346,-40.89231 10.3684,-35.27896 -7.5223,-71.74171 -40.0638,-81.65345 -8.3408,-2.54049 -27.6316,-2.54534 -36,-0.009 -19.6095,5.94319 -34.19,21.18005 -40.4016,42.22034 -4.4442,15.05347 -2.2504,37.42153 5.0512,51.50468 12.7685,24.62717 42.9997,36.92351 70.8796,28.8298 z M 77.666667,546.33333 C 77.3,545.96667 77,508.39782 77,462.847 V 380.02733 L 44.25,379.76366 11.5,379.5 11.228842,359.74471 10.957685,339.98941 101.72884,340.24471 192.5,340.5 v 19.5 19.5 l -32.75,0.26366 -32.75,0.26367 v 81.90455 c 0,45.0475 -0.27314,82.61635 -0.60699,83.48633 C 125.86312,546.7991 122.77251,547 102.05968,547 89.010188,547 78.033333,546.7 77.666667,546.33333 Z M 213.46107,545.75 C 213.19917,545.0625 213.1008,495.675 213.24245,436 L 213.5,327.5 h 23.5 23.5 l 0.26232,36.75 c 0.18397,25.77395 0.589,36.75 1.3561,36.75 0.60157,0 2.73353,-1.29121 4.73768,-2.86935 5.3515,-4.21398 13.39528,-8.01719 22.02659,-10.41448 10.13155,-2.81397 32.37428,-3.03735 42.00478,-0.42186 11.58911,3.14743 18.99306,7.39536 27.20796,15.61026 8.43542,8.43542 12.4396,15.57555 16.15073,28.79951 2.10469,7.49969 2.20041,9.83898 2.51922,61.56413 l 0.3314,53.76822 -23.79839,-0.26822 L 329.5,546.5 328.9812,498 c -0.58193,-54.40229 -0.49968,-53.76321 -8.01863,-62.30518 -5.51133,-6.26121 -11.84418,-8.76058 -22.22721,-8.77235 -14.33736,-0.0163 -23.73524,4.44271 -30.47604,14.45984 -6.54611,9.72783 -6.61929,10.35689 -7.02269,60.36769 l -0.365,45.25 h -23.4672 c -17.85314,0 -23.58111,-0.29904 -23.94336,-1.25 z M 417,467.51905 V 388.0381 l 2.25,-0.5525 c 1.2375,-0.30388 11.25,-0.42496 22.25,-0.26906 l 20,0.28346 0.28893,8.75 c 0.18118,5.48672 0.69656,8.75 1.38193,8.75 0.60114,0 2.49612,-1.47944 4.21106,-3.28764 3.72248,-3.92491 13.69146,-10.11709 19.75795,-12.27254 6.29236,-2.23571 18.51796,-4.43945 24.62963,-4.43965 L 517.039,385 516.7695,406.75 516.5,428.5 505,429.09996 c -6.325,0.32998 -13.00042,1.09694 -14.83427,1.70436 -8.73394,2.89293 -17.51147,10.46816 -20.76809,17.9234 -4.38987,10.04952 -4.67245,13.1641 -5.12833,56.52228 L 463.83034,547 H 440.41517 417 Z M 543.24401,467.25 543.5,387.5 h 23 23 l 0.25599,79.75 0.25598,79.75 H 566.5 542.98803 Z m 123.27338,61 c -4.32133,-10.3125 -12.00441,-28.65 -17.07352,-40.75 -9.97626,-23.81343 -25.01085,-59.54255 -34.59524,-82.21428 -3.30497,-7.81786 -5.85452,-15.01786 -5.66568,-16 0.31601,-1.64346 2.18355,-1.80708 23.44275,-2.05381 17.70412,-0.20548 23.3442,0.0281 24.14756,1 0.5765,0.69745 4.51166,9.81809 8.74479,20.26809 4.23313,10.45 12.63216,31.15 18.6645,46 6.03234,14.85 11.90589,29.38707 13.05235,32.30461 1.67128,4.25312 2.32483,5.046 3.29708,4 1.18979,-1.28004 3.02879,-5.50887 19.48429,-44.80461 14.21407,-33.94318 21.12244,-50.37023 23.02504,-54.75 l 1.84623,-4.25 h 21.99721 c 12.95882,0 22.24074,0.39403 22.5899,0.95898 0.64579,1.04491 -2.39706,8.67115 -20.96374,52.54102 -6.75038,15.95 -15.40018,36.425 -19.22176,45.5 -3.82158,9.075 -11.17383,26.5125 -16.33832,38.75 L 723.56085,547 H 698.9676 674.37435 Z m 415.94351,17.5 c -0.262,-0.6875 -0.3603,-47.15 -0.2186,-103.25 l 0.2577,-102 69.75,-0.2568 69.75,-0.2568 v 6.89981 c 0,5.36924 -0.3509,7.03446 -1.5818,7.5068 -0.87,0.33385 -28.545,0.60699 -61.5,0.60699 H 1099 v 39.5 39.5 l 53.75,0.0153 c 29.5625,0.008 54.3358,0.3869 55.0518,0.84106 0.9041,0.57343 1.2097,2.78405 1,7.23469 L 1208.5,448.5 1154,449 l -54.5,0.5 -0.2611,41.24254 -0.2611,41.24254 63.2611,0.25746 63.2611,0.25746 0.2938,7.25 0.2938,7.25 h -71.5752 c -56.3394,0 -71.6766,-0.26608 -72.0515,-1.25 z M 2121,469.45794 v -77.54207 l 7.75,0.29207 7.75,0.29206 0.2562,77.25 0.2561,77.25 H 2129.0062 2121 Z m 259.4763,76.3344 c -0.2714,-0.71079 -0.377,-35.49234 -0.2348,-77.29234 l 0.2585,-76 h 7.5 7.5 l 0.5,14.31708 0.5,14.31708 5,-6.27917 c 7.3789,-9.26668 14.5467,-14.36547 27.5735,-19.61436 7.3545,-2.96333 19.5543,-4.4912 30.9265,-3.87314 32.1345,1.74644 50.6978,16.91123 57.4651,46.94456 1.2706,5.63924 1.5349,15.5819 1.5349,57.75 V 547 h -8 -8 v -48.43462 c 0,-39.44723 -0.2813,-49.77209 -1.5162,-55.64243 -4.1335,-19.64982 -15.2733,-31.50087 -33.4134,-35.54662 -8.6067,-1.91953 -25.466,-1.41213 -33.1698,0.99828 -17.9095,5.60363 -30.205,18.14421 -35.6345,36.34489 -1.4918,5.00046 -1.7948,12.25777 -2.2453,53.7805 l -0.5208,48 -7.7651,0.29234 c -5.6451,0.21252 -7.8999,-0.0605 -8.2586,-1 z M 559.34375,366.01666 c -16.34281,-3.46167 -25.40682,-17.96826 -20.90428,-33.45645 2.17429,-7.4793 8.01808,-13.45833 16.15368,-16.52753 10.80225,-4.07521 26.13518,-1.4533 33.74843,5.77093 5.1015,4.84083 7.05337,9.8763 7.05337,18.19639 0,8.16901 -1.80022,12.90446 -6.98667,18.37833 -5.89093,6.21738 -19.22681,9.72213 -29.06453,7.63833 z M 2122.2985,354.04048 c -3.4377,-2.09609 -6.2985,-6.64857 -6.2985,-10.02294 0,-3.8778 2.8644,-8.96447 6.1898,-10.99191 5.7207,-3.48778 13.5912,-2.03172 17.2495,3.19116 2.1018,3.00068 2.0207,11.15149 -0.1437,14.45483 -3.3728,5.14752 -11.4533,6.7491 -16.9971,3.36886 z"
       id="path147"
       inkscapeConnector-curvature="0" />
    <path
       style="fill:#a0a6ab"
       d="M 860.5,547.60249 C 840.75754,543.48907 827.85276,536.81203 814.88319,524 c -8.32593,-8.2248 -10.23794,-10.7752 -14.24412,-19 -6.35563,-13.04833 -7.80918,-19.12811 -8.36773,-35 -0.40212,-11.42654 -0.14743,-14.88231 1.65826,-22.5 5.34409,-22.54511 20.65856,-42.09291 41.0704,-52.42336 22.41031,-11.34187 48.0864,-13.13255 72.13598,-5.03083 30.55424,10.29298 49.72521,36.31356 52.29946,70.98558 0.34838,4.69227 0.33097,11.10477 -0.0387,14.25 L 958.72464,481 h -58.8033 c -38.6374,0 -59.01807,0.34749 -59.42955,1.01328 -1.18397,1.9157 4.4216,12.0322 9.28489,16.75664 8.7648,8.51456 19.04179,12.19913 34.07898,12.21821 14.47315,0.0184 24.48618,-3.23726 35.27426,-11.46903 l 4.62992,-3.53283 12.12008,12.88606 C 942.54596,515.95966 948,522.45181 948,523.29931 c 0,2.62973 -11.96802,12.35685 -20.43361,16.60762 -13.58547,6.82156 -21.20257,8.37497 -42.56639,8.68082 -11.94969,0.17108 -20.62442,-0.17777 -24.5,-0.98526 z M 914.17423,450 c -0.17917,-1.375 -1.36499,-4.804 -2.63516,-7.62001 -6.59877,-14.62969 -23.37887,-23.11044 -40.47745,-20.4575 -11.19311,1.73667 -19.36114,6.36692 -25.02549,14.18633 -3.33777,4.60765 -7.36935,14.543 -6.48314,15.97691 0.34925,0.5651 15.37364,0.8342 37.76351,0.67637 L 914.5,452.5 Z M 1328,548.27751 c -21.5052,-1.98083 -37.6568,-8.9473 -50.1848,-21.64556 C 1262.8436,511.45686 1256,493.49023 1256,469.35985 c 0,-23.46962 6.9873,-41.38495 21.9843,-56.36718 9.6161,-9.60662 17.8827,-14.53005 31.2578,-18.61639 15.718,-4.80215 36.3863,-4.06401 50.9063,1.81806 11.3596,4.60176 23.6942,14.48009 31.5979,25.30566 l 2.1903,3 0.047,-47.5 c 0.026,-26.125 0.4179,-48.08471 0.8712,-48.79935 0.5787,-0.91235 2.8825,-1.21019 7.7347,-1 l 6.9105,0.29935 0.2544,109.75 0.2544,109.75 H 1402.5044 1395 v -15.33333 c 0,-8.43334 -0.2763,-15.60966 -0.614,-15.94738 -0.3378,-0.33772 -2.6226,2.05781 -5.0773,5.32341 -11.0721,14.72907 -28.7262,24.7047 -46.8469,26.47125 -3.279,0.31966 -7.0868,0.69477 -8.4618,0.83357 -1.375,0.13881 -4.075,0.1073 -6,-0.07 z m 22,-16.96836 c 15.9812,-4.46034 30.0214,-16.11682 36.8558,-30.59837 5.2719,-11.17073 6.6569,-17.95376 6.5769,-32.21078 -0.074,-13.21705 -1.5034,-19.62612 -6.6906,-30 -7.302,-14.60329 -19.9806,-25.42625 -35.2421,-30.0842 -7.53,-2.29823 -27.5308,-2.6006 -35,-0.52911 -20.3764,5.65113 -35.5537,21.03258 -42.0478,42.61331 -2.6163,8.69468 -2.4351,30.45302 0.33,39.6088 7.1531,23.6854 27.0738,40.51281 51.2178,43.26471 5.7021,0.64992 18.0938,-0.41596 24,-2.06436 z m 174,16.07725 c -17.2247,-1.83798 -28.7937,-7.13646 -38.5827,-17.67055 -3.0512,-3.28347 -6.8553,-8.90381 -8.799,-13 -6.3492,-13.38042 -6.5576,-15.66205 -6.6489,-72.79981 l -0.082,-51.41604 6.7826,-0.30085 c 5.5229,-0.24497 7.0191,0.0227 8.0563,1.44113 0.9905,1.35453 1.2738,12.58721 1.2738,50.50206 0,39.67089 0.274,49.81196 1.4698,54.40303 5.9744,22.93722 21.4125,34.47128 46.5302,34.76341 5.8212,0.0677 12.9508,-0.47474 16,-1.21732 18.9184,-4.60727 32.7293,-18.22192 38.6404,-38.09146 1.3727,-4.61423 1.7348,-13.23038 2.2479,-53.5 l 0.6117,-48 h 7.5 7.5 l 0.2562,77.25 0.2561,77.25 h -7.5061 -7.5062 v -13.83333 c 0,-7.60834 -0.2883,-14.12163 -0.6407,-14.47399 -0.3523,-0.35236 -1.8722,1.26014 -3.3776,3.58333 -1.5053,2.32319 -4.9295,6.33463 -7.6093,8.91429 -13.8956,13.37625 -32.5559,18.73745 -56.3724,16.1961 z m 189.3629,-0.41004 c -14.5021,-2.61809 -28.8052,-10.29042 -39.9561,-21.43281 -6.5965,-6.59152 -8.9553,-9.83978 -12.7556,-17.56528 -6.5773,-13.37084 -8.6171,-22.4603 -8.6351,-38.47827 -0.012,-10.91472 0.4014,-14.52386 2.5795,-22.5 8.9984,-32.95246 35.4808,-53.73751 70.9044,-55.65018 17.4039,-0.93971 33.1893,2.86998 45.9163,11.08153 5.9136,3.81552 16.5837,14.72039 16.5837,16.94861 0,1.6871 -8.5197,8.62004 -10.5929,8.62004 -0.7179,0 -2.5324,-1.60874 -4.0321,-3.57498 -3.8576,-5.05761 -13.9273,-11.9581 -21.9976,-15.0744 -6.1554,-2.37689 -8.2946,-2.66591 -20.3774,-2.75315 -14.82,-0.107 -19.6812,0.83076 -29.5,5.69078 -15.1796,7.51345 -25.7183,20.48491 -31.0453,38.21175 -2.6649,8.86824 -2.4667,30.50426 0.3648,39.80666 8.0187,26.34491 30.1816,42.71674 58.1805,42.9782 18.046,0.16852 29.5247,-4.13461 41.4395,-15.53486 3.8801,-3.7125 7.1675,-6.75 7.3053,-6.75 0.1378,0 2.5016,1.61721 5.2529,3.59381 3.0501,2.19129 5.0023,4.35116 5.0023,5.53448 0,3.17427 -12.7144,14.98284 -20.5,19.0395 -12.5688,6.54892 -18.3251,7.94406 -34.5,8.36164 -7.975,0.20588 -16.8117,-0.043 -19.6371,-0.55307 z M 1858,547.05504 c -12.5535,-2.33963 -23.9978,-8.62686 -30.837,-16.9412 -6.969,-8.47206 -9.7804,-17.83604 -8.8796,-29.57575 1.3876,-18.08427 10.9235,-29.92908 28.9727,-35.988 10.568,-3.54759 21.958,-4.51271 53.4939,-4.53276 L 1928,460 l -0.015,-9.25 c -0.025,-15.62929 -3.2335,-25.3442 -11.0492,-33.45516 -5.4694,-5.67606 -12.2733,-8.90039 -23.118,-10.95542 -17.6974,-3.35362 -41.3235,2.4059 -57.4782,14.01193 -2.7933,2.00676 -5.5658,3.64865 -6.1612,3.64865 -0.9067,0 -4.8295,-5.05024 -7.5442,-9.71247 -0.9736,-1.67191 9.9844,-9.54012 19.3515,-13.89504 4.1172,-1.91418 11.9922,-4.68481 17.5,-6.15695 8.6406,-2.30949 12.0029,-2.68001 24.5141,-2.70135 15.7784,-0.0269 22.9375,1.30257 32.8056,6.09216 11.3097,5.48934 19.9163,15.82986 24.4354,29.35837 2.114,6.32854 2.1867,8.14186 2.5341,63.26528 l 0.3578,56.75 h -7.5665 -7.5664 v -11.5 c 0,-6.325 -0.2288,-11.5 -0.5083,-11.5 -0.2796,0 -3.3171,2.84982 -6.75,6.33294 -7.23,7.33567 -12.9046,10.8828 -23.0091,14.38252 -6.147,2.12905 -9.409,2.55557 -21.7326,2.84166 -7.975,0.18513 -16.525,-0.0408 -19,-0.50208 z m 31.4124,-13.55416 c 15.419,-3.2665 28.368,-12.83938 35.3601,-26.14086 3.1941,-6.07641 3.2275,-6.28605 3.2275,-20.25 V 473 h -29.412 c -31.5668,0 -40.5307,0.92692 -48.7506,5.04113 -16.9979,8.50768 -20.974,29.92485 -8.3036,44.72727 8.5266,9.96143 29.4155,14.64388 47.8786,10.73248 z m 144.8177,12.94872 c -13.5229,-3.6407 -22.14,-12.32251 -25.6644,-25.85701 -1.2877,-4.94507 -1.5459,-14.55641 -1.5853,-59 -0.026,-29.20092 -0.3877,-53.64137 -0.8039,-54.3121 -0.5197,-0.83738 -4.9746,-1.30741 -14.2167,-1.5 L 1978.5,405.5 v -6.5 -6.5 l 13.4598,-0.28049 c 9.2294,-0.19233 13.7034,-0.66378 14.2347,-1.5 0.4262,-0.67073 0.7818,-8.07344 0.7902,-16.45046 0.017,-17.38811 -0.3852,-16.71222 9.5816,-16.08134 l 4.9337,0.31229 0.2428,14.5 c 0.1335,7.975 0.4796,15.5125 0.7691,16.75 l 0.5262,2.25 h 23.981 H 2071 v 7 7 h -23.893 c -20.8648,0 -23.97,0.20048 -24.5,1.58179 -1.1357,2.95965 -0.6642,94.95183 0.5278,102.96611 1.2866,8.65099 5.0373,15.33922 10.7476,19.16503 9.3687,6.27699 25.8428,5.7053 36.3714,-1.26219 l 4.0597,-2.68658 1.6615,2.20271 c 0.9138,1.21149 2.511,3.78017 3.5493,5.70817 l 1.8879,3.50547 -2.4561,1.98075 c -3.8801,3.12918 -12.1243,6.73276 -17.9158,7.83109 -7.4262,1.40835 -20.5499,1.14268 -26.8102,-0.54275 z m 208.5333,0.58284 c -28.8791,-5.26057 -51.155,-25.96602 -58.9388,-54.78346 -1.6341,-6.04991 -2.1171,-10.9283 -2.2027,-22.24898 -0.1,-13.19578 0.1449,-15.35449 2.7209,-24 9.7341,-32.66963 35.4073,-52.82124 69.6572,-54.67587 23.4655,-1.27066 45.027,6.6268 59.7975,21.9024 10.0582,10.40224 15.4459,19.95789 19.3239,34.27347 3.2667,12.05896 3.2559,32.85525 -0.023,44.5 -7.3418,26.07278 -24.929,44.64201 -49.8635,52.64763 -6.3254,2.03087 -10.2856,2.55299 -21.7347,2.86549 -7.7,0.21018 -16.1315,-0.006 -18.7366,-0.48068 z m 34.2319,-16.22108 c 9.2742,-2.81165 18.8215,-8.766 25.3334,-15.79964 6.8153,-7.36138 10.153,-12.88745 13.1542,-21.77909 8.5946,-25.46305 2.8949,-52.98269 -14.5545,-70.27254 -6.9567,-6.89306 -16.5972,-12.60513 -25.4284,-15.06652 -3.0003,-0.83623 -9.7993,-1.39357 -17,-1.39357 -13.6379,0 -18.7928,1.13275 -28.9141,6.35366 -14.0542,7.24965 -24.325,20.46277 -29.5476,38.01245 -4.4285,14.88086 -2.4517,36.48294 4.616,50.44321 12.9863,25.65076 43.7123,38.18141 72.341,29.50204 z M 78,465.08179 c 0,-45.05502 -0.273145,-82.63002 -0.606989,-83.5 C 76.857141,380.18533 73.063567,380 45.015456,380 c -25.79496,0 -31.986013,-0.2596 -32.916033,-1.3802 -0.792038,-0.95435 -1.061227,-7.04813 -0.872445,-19.75 L 11.5,340.5 l 89.93766,-0.25538 c 71.28903,-0.20243 90.10292,0.005 90.73469,1 1.03234,1.62603 1.04335,35.86756 0.012,37.49126 -0.59102,0.93053 -8.80254,1.30114 -33.23468,1.5 L 126.5,380.5 126.24426,463.75 125.98851,547 H 101.99426 78 Z m 135.61395,80.35457 c -1.11539,-2.90666 -0.7039,-214.39976 0.42123,-216.5021 0.9763,-1.82422 2.31315,-1.93426 23.5,-1.93426 12.35565,0 22.56358,0.1125 22.68429,0.25 0.1207,0.1375 0.4582,17.04941 0.75,37.58202 l 0.53053,37.33202 4.5,-3.34092 c 17.47712,-12.97549 45.01067,-17.13655 68.27009,-10.31746 16.28926,4.77561 30.18579,17.52248 36.51524,33.49434 5.43877,13.72429 5.51526,14.64673 5.94962,71.75 L 377.14,547 H 353.57 330 l -0.0178,-40.75 c -0.0193,-44.32092 -0.73212,-55.63174 -3.96746,-62.9566 -5.60105,-12.68083 -18.66544,-18.82534 -34.61037,-16.27813 -13.73409,2.19403 -22.27232,9.17149 -27.51432,22.48473 -2.3297,5.9168 -2.36958,6.63095 -2.87627,51.5 l -0.51381,45.5 -23.13605,0.26815 c -20.44318,0.23694 -23.2075,0.0819 -23.75,-1.33179 z M 417,468.12244 c 0,-65.77195 0.22885,-79.06748 1.37736,-80.02066 0.9603,-0.79698 7.6975,-1.06115 22.25,-0.87244 L 461.5,387.5 l 0.26973,8 c 0.38631,11.45791 0.52283,11.60158 6.01665,6.33147 9.06725,-8.69804 19.70709,-13.49301 35.21362,-15.86943 4.125,-0.63217 8.85,-0.99475 10.5,-0.80572 l 3,0.34368 0.28371,19.5 c 0.15604,10.725 0.0577,20.42184 -0.21848,21.54852 -0.46322,1.88951 -1.3003,2.05748 -10.78371,2.16392 -24.33695,0.27314 -37.71512,11.98075 -40.799,35.70432 -0.50642,3.89578 -0.93466,24.07074 -0.95164,44.83324 L 464,547 H 440.5 417 Z m 126,-0.60339 V 388.0381 l 2.25,-0.55203 c 1.2375,-0.30362 11.7,-0.42469 23.25,-0.26905 l 21,0.28298 0.25599,79.75 0.25598,79.75 H 566.50599 543 Z m 128.24021,71.74806 C 669.54285,534.9952 663.89089,521.375 658.68029,509 c -5.2106,-12.375 -14.29542,-33.975 -20.18849,-48 -5.89307,-14.025 -14.95787,-35.58856 -20.14401,-47.91903 -5.18613,-12.33047 -9.29257,-23.13047 -9.12541,-24 0.26482,-1.37753 3.27643,-1.61547 23.40332,-1.84906 17.73458,-0.20583 23.32524,0.0264 24.07185,1 0.53486,0.69745 10.34369,24.3441 21.79739,52.54812 11.4537,28.20401 21.24989,51.13836 21.76932,50.96522 0.51943,-0.17315 3.5424,-6.59916 6.71771,-14.28003 3.17532,-7.68087 10.13539,-24.31522 15.46683,-36.96522 5.33145,-12.65 12.44046,-29.525 15.79781,-37.5 3.35735,-7.975 6.58782,-14.83061 7.17883,-15.23469 0.59101,-0.40408 10.58892,-0.74158 22.21757,-0.75 16.28668,-0.0118 21.25603,0.27921 21.63505,1.26693 0.52371,1.36477 0.36959,1.74864 -20.76485,51.71776 -7.56023,17.875 -19.04109,45.1 -25.51303,60.5 -6.47194,15.4 -13.51221,32.05 -15.64504,37 l -3.87788,9 -24.57547,0.26711 -24.57548,0.26712 z M 1083,443.5 V 340 h 69.5 69.5 v 7 7 l -59.25,0.0136 c -32.5875,0.008 -60.2625,0.285 -61.5,0.61664 l -2.25,0.60297 v 39.38337 c 0,30.83076 0.2715,39.38715 1.25,39.40075 0.6875,0.01 24.3159,0.002 52.5076,-0.0171 28.1917,-0.019 52.3986,0.25183 53.793,0.60181 2.4349,0.6111 2.5237,0.89916 2.2424,7.26713 L 1208.5,448.5 1154,449 l -54.5,0.5 -0.2611,41.24254 -0.2611,41.24254 63.2611,0.25746 63.2611,0.25746 0.2938,7.25 0.2938,7.25 H 1154.5438 1083 Z m 1038,26 V 392 h 6.4182 c 3.53,0 7.13,0.27314 8,0.60699 1.4234,0.54621 1.5818,8.30612 1.5818,77.5 V 547 h -8 -8 z m 259.85,1.5 c -0.082,-41.8 -0.195,-76.5625 -0.25,-77.25 -0.072,-0.89778 2.0133,-1.25 7.4,-1.25 h 7.5 l 0.5,14.31708 0.5,14.31708 5,-6.26983 c 9.6408,-12.08926 22.2487,-19.21374 39.966,-22.58411 13.3456,-2.53873 33.363,-0.51311 44.3354,4.48643 6.4094,2.9204 14.8414,8.99831 18.6538,13.44596 4.9722,5.8006 10.1188,16.60145 12.526,26.28739 1.8532,7.45705 1.9891,11.48116 2.0034,59.29206 l 0.015,51.29207 -7.75,-0.29207 -7.75,-0.29206 -0.528,-51 c -0.4627,-44.69268 -0.7451,-51.73278 -2.2829,-56.92514 -6.2916,-21.24258 -22.4394,-32.70129 -46.0264,-32.66087 -17.1984,0.0295 -31.1068,5.01914 -41.2968,14.81531 -6.3223,6.07796 -10.5839,13.31056 -14.0063,23.7707 l -2.6175,8 -0.4807,47.25 -0.4807,47.25 h -7.3903 -7.3904 l -0.15,-76 z M 560.2697,365.94594 c -9.98886,-1.97148 -17.53987,-7.66645 -21.04644,-15.87321 -2.25426,-5.27586 -2.06225,-14.66135 0.41065,-20.07273 2.192,-4.79671 7.26167,-10.35064 11.36609,-12.4518 7.87788,-4.0329 20.7232,-4.31037 29.30226,-0.63296 10.22625,4.38348 14.91471,11.44427 14.9548,22.52181 0.0515,14.21979 -7.58351,23.37214 -22.05628,26.43974 -5.91568,1.25387 -6.90177,1.25914 -12.93108,0.0691 z m 1562.0288,-11.90546 c -3.4377,-2.09609 -6.2985,-6.64857 -6.2985,-10.02294 0,-12.23368 16.7452,-17.68634 23.3515,-7.60384 2.6078,3.98006 2.1872,11.71296 -0.8132,14.95046 -4.5632,4.92379 -10.8536,5.96045 -16.2398,2.67632 z"
       id="path145"
       inkscapeConnector-curvature="0" />
    <path
       style="fill:#5c9298"
       d="m 858.88658,547.01269 c -11.1124,-2.31596 -23.98061,-7.59201 -32.77288,-13.4371 -12.96135,-8.61669 -24.63395,-23.46147 -29.66875,-37.73163 -6.16523,-17.47411 -5.92021,-40.80772 0.61182,-58.26615 13.77116,-36.80672 53.13355,-58.01183 94.94323,-51.14732 14.37441,2.36005 24.95008,6.56104 35.5,14.1017 15.50117,11.07961 25.92027,27.24732 30.05926,46.64406 1.63681,7.67067 2.39508,30.47059 1.08392,32.59207 -0.589,0.95303 -14.09578,1.23168 -59.7022,1.23168 -46.49133,0 -58.93892,0.26403 -58.93121,1.25 0.0245,3.13876 5.34614,12.19673 9.69562,16.50301 8.61919,8.53358 19.05996,12.21637 34.6868,12.23512 14.43656,0.0173 25.56136,-3.82278 36.22972,-12.50592 l 3.12192,-2.54098 12.12808,13.00271 C 942.54236,516.09542 948,522.57633 948,523.34596 c 0,1.85802 -7.64005,8.82253 -14.22102,12.9636 -14.56118,9.16259 -29.28144,12.743 -51.77898,12.59418 -9.74297,-0.0644 -17.32581,-0.68484 -23.11342,-1.89105 z M 914.17404,449.5 c -0.17928,-1.65 -1.72149,-5.61942 -3.42713,-8.82093 -9.00961,-16.91114 -29.84994,-23.82235 -49.63338,-16.45975 -7.75653,2.88666 -16.72801,12.08717 -19.97824,20.48824 -1.30059,3.36172 -2.05817,6.60821 -1.6835,7.21443 0.48126,0.77869 11.59542,1.02529 37.86471,0.84011 L 914.5,452.5 Z M 1321,547.31861 c -10.2546,-1.05863 -25.8569,-7.04128 -33.9901,-13.03342 -21.3683,-15.74305 -32.0364,-39.53586 -30.7268,-68.52867 1.5755,-34.87594 20.6772,-60.99325 51.7169,-70.71112 31.0749,-9.72891 63.1194,-0.28511 81.3574,23.97675 3.2589,4.33535 4.6102,5.50473 5.0466,4.36743 0.3278,-0.85423 0.596,-22.61821 0.596,-48.36438 0,-52.16546 -0.6162,-48.0252 7.1475,-48.0252 2.1912,0 4.8544,0.46583 5.9182,1.03518 1.8942,1.01374 1.9343,3.29314 1.9343,110 V 547 h -7.5 -7.5 v -15.83333 c 0,-8.70834 -0.2883,-16.12163 -0.6407,-16.47399 -0.3523,-0.35236 -1.8881,1.32639 -3.4128,3.73057 -3.8712,6.10431 -13.7481,15.37207 -21.1644,19.85907 -12.6586,7.65872 -30.3613,10.93794 -48.7821,9.03629 z m 30.8265,-16.23526 c 25.7173,-7.91187 42.4155,-32.43027 42.2817,-62.08335 -0.1355,-30.05917 -17.5172,-53.7729 -45.1082,-61.54073 -4.2752,-1.20363 -9.7516,-1.82042 -16,-1.80203 -35.4815,0.10437 -61.0534,26.85062 -60.9826,63.78315 0.036,18.93006 5.9673,34.49595 17.6487,46.31816 9.6985,9.8155 21.2772,15.67957 34.8339,17.64167 5.9967,0.86792 21.1508,-0.41692 27.3265,-2.31687 z M 1522.5,547.07647 c -18.7026,-2.04018 -33.3931,-10.35584 -42.084,-23.82197 -4.4212,-6.85036 -6.1328,-11.04257 -8.4737,-20.7545 -1.774,-7.36002 -1.9289,-12.07987 -1.9357,-59 l -0.01,-51 7.2504,0.10475 7.2504,0.10476 0.6324,50.89524 c 0.6818,54.87146 0.7176,55.24548 6.3536,66.3676 5.4751,10.80465 15.2472,18.52022 28.014,22.11844 6.4406,1.81523 25.3853,1.8126 32,-0.004 18.2256,-5.00654 32.2646,-19.35971 37.1339,-37.96493 2.6507,-10.12828 3.4163,-24.65422 3.3233,-63.05485 l -0.093,-38.43343 6.818,0.1371 c 3.7498,0.0754 7.1582,0.15795 7.5741,0.18343 0.4159,0.0255 0.6409,34.58383 0.5,76.79633 l -0.2562,76.75 -7.25,0.29381 -7.25,0.29381 v -13.87714 c 0,-7.63243 -0.298,-14.17518 -0.6623,-14.53945 -0.3643,-0.36427 -2.1234,1.50727 -3.9092,4.15898 -6.7691,10.05157 -19.2608,18.701 -32.5321,22.5258 -6.6996,1.93081 -22.6861,2.7799 -32.3964,1.72066 z m 193.4995,-0.0609 c -16.4125,-2.62976 -31.2744,-10.14488 -42.4787,-21.48 -15.3795,-15.55904 -22.2468,-34.83021 -21.2154,-59.53559 1.0025,-24.01547 9.8153,-43.23469 26.0467,-56.80347 23.377,-19.54232 60.8266,-23.59406 87.9484,-9.51531 7.5156,3.90133 21.6995,16.72073 21.6995,19.61207 0,1.1706 -8.9067,8.70671 -10.2902,8.70671 -0.157,0 -3.3061,-2.94725 -6.998,-6.54945 -22.5327,-21.98553 -61.8378,-21.26156 -84.6502,1.5592 -11.5383,11.54259 -16.8535,24.44128 -17.7603,43.10035 -0.4311,8.86904 -0.1685,13.3893 1.1123,19.14618 4.9684,22.33191 19.5889,38.53072 41.4066,45.87634 8.7278,2.93853 27.4431,3.1775 36.6798,0.46836 8.6573,-2.5392 17.1979,-7.64636 23.4658,-14.03225 3.0063,-3.0628 6.0627,-5.56873 6.7921,-5.56873 2.0805,0 10.1597,6.3317 10.2031,7.99616 0.021,0.82289 -3.4551,4.87945 -7.7257,9.01459 -8.4139,8.14702 -17.8763,13.56188 -28.7353,16.44372 -7.1408,1.89509 -27.7579,2.80171 -35.5005,1.56112 z M 1860,547.068 c -28.3595,-4.17787 -45.1095,-24.81865 -41.0358,-50.568 2.1447,-13.5565 10.0033,-23.91981 22.3328,-29.45062 12.349,-5.53961 24.993,-6.9863 61.3856,-7.02358 29.1571,-0.0299 26.9671,0.9321 25.8557,-11.35742 -0.9829,-10.86895 -2.5208,-17.67084 -5.1894,-22.95253 -8.9297,-17.67352 -32.6059,-25.00917 -58.7741,-18.2101 -11.8055,3.06734 -21.2586,7.2602 -28.2223,12.51788 -2.8967,2.187 -5.6597,3.97637 -6.1401,3.97637 -1.2066,0 -7.2124,-8.50739 -7.2124,-10.21662 0,-1.96054 10.8315,-9.36467 19.4357,-13.28573 26.2144,-11.94627 56.6734,-12.27136 77.6964,-0.82925 6.6109,3.59813 14.099,11.90044 17.7076,19.63329 5.4524,11.68362 5.6603,14.37172 5.6603,73.19831 v 54 h -7 -7 l -0.265,-10.5 c -0.1458,-5.775 -0.4901,-11.11717 -0.7652,-11.87148 -0.3334,-0.91396 -1.6212,0.045 -3.8604,2.87467 -6.6119,8.35544 -17.6377,15.32502 -29.1724,18.44018 -6.8899,1.86078 -27.4391,2.80286 -35.437,1.62463 z m 32.5717,-14.08634 c 4.3404,-1.11008 10.3077,-3.47258 13.2606,-5.25 7.1072,-4.2779 16.2441,-14.14956 19.801,-21.39353 2.546,-5.18503 2.9045,-7.10572 3.2047,-17.16925 0.186,-6.23212 0.057,-12.45145 -0.2868,-13.82073 l -0.6248,-2.48961 -33.7132,0.37199 c -31.1348,0.34354 -34.1338,0.53035 -39.2132,2.44269 -10.9421,4.11959 -16.91,9.60096 -19.8438,18.226 -2.8536,8.38955 -0.6447,20.62614 4.9484,27.41152 9.9696,12.09485 31.8122,16.95357 52.4671,11.67092 z m 145.2989,14.06812 c -13.8533,-2.54204 -23.5556,-10.57507 -28.4434,-23.54978 -1.7376,-4.61219 -1.9241,-9.34353 -2.4054,-61 l -0.5218,-56 -13.75,-0.27822 -13.75,-0.27822 -0.15,-5.47178 c -0.082,-3.00948 -0.195,-6.00184 -0.25,-6.64969 -0.073,-0.85467 3.0686,-1.10984 11.4465,-0.92987 6.3505,0.13643 12.7521,-0.0546 14.2257,-0.4244 l 2.6792,-0.67245 0.2743,-16.14768 0.2743,-16.14769 7.25,-0.29381 7.25,-0.29381 v 16.4354 16.4354 l 2.5622,0.64308 c 1.4092,0.35369 12.3217,0.59218 24.25,0.52998 l 21.6878,-0.11309 0.2953,6.56055 0.2953,6.56054 -24.2953,0.26788 L 2022.5,406.5 V 459 c 0,48.69589 0.1363,52.91531 1.8811,58.23159 1.9547,5.9559 6.5531,11.64878 11.458,14.18519 5.0007,2.58596 14.1743,3.6977 20.6437,2.50177 5.8852,-1.08795 14.0498,-4.35328 15.089,-6.03467 1.1857,-1.91851 3.5219,-0.69575 5.9157,3.09625 1.3819,2.18907 2.5125,4.65768 2.5125,5.48581 0,1.90711 -6.2102,6.04614 -12.8664,8.57528 -5.8878,2.23721 -21.9928,3.34262 -29.263,2.00856 z M 2245,547.04292 c -30.1171,-4.57413 -53.2912,-25.65994 -61.0436,-55.54292 -3.226,-12.4351 -2.9843,-32.95476 0.5294,-44.95066 7.4607,-25.47103 24.273,-43.1935 48.4871,-51.11217 11.8629,-3.8795 23.1411,-5.02572 34.7497,-3.53165 19.5281,2.51333 33.7041,9.25895 46.2774,22.02097 12.1733,12.35603 18.9016,27.30195 21.0782,46.82193 3.6269,32.52648 -12.4186,64.82117 -38.8159,78.12441 -11.6368,5.86448 -20.5669,8.137 -33.7623,8.59181 -6.6,0.22748 -14.475,0.0377 -17.5,-0.42172 z m 31.5,-15.87178 c 20.6897,-6.40886 34.7423,-21.19028 41.0425,-43.17114 2.5276,-8.81839 2.5468,-26.80567 0.039,-36.5 -2.8719,-11.10192 -8.0488,-20.01081 -16.5611,-28.5 -11.8957,-11.86343 -25.3644,-17.35804 -42.5204,-17.34636 -28.4711,0.0194 -50.83,17.06833 -58.7537,44.80044 -2.6839,9.39331 -2.8201,29.23698 -0.2611,38.04592 6.9354,23.87447 24.8594,40.33865 48.5148,44.56344 6.7442,1.20449 21.7107,0.21077 28.5,-1.8923 z M 77.755745,463.75 77.5,380.5 45.5,380.24407 C 16.838053,380.01484 13.369607,379.81235 12.25,378.30294 10.940649,376.53773 10.38434,344.76796 11.606989,341.58179 12.154256,340.15563 21.060673,340 102.12813,340 h 89.91415 L 191.77114,359.75 191.5,379.5 158.75,379.76366 126,380.02733 V 463.51366 547 H 102.00574 78.011489 Z M 214.24559,437.26844 214.5,327.5 l 22.11198,-0.26876 c 17.643,-0.21445 22.33943,0.005 23.23736,1.08722 0.77702,0.93626 1.20667,12.57231 1.38801,37.59154 l 0.26265,36.23554 4.15588,-3.01086 c 18.07413,-13.0944 43.36039,-17.0539 67.97168,-10.64347 14.6679,3.8205 28.1077,15.11434 35.11581,29.50879 7.30743,15.00926 7.4841,16.69681 7.98245,76.25 L 377.16725,547 H 353.58362 330 l -0.0309,-42.25 c -0.017,-23.2375 -0.46509,-45.625 -0.99579,-49.75 -1.29873,-10.09455 -5.52504,-18.64047 -11.19117,-22.62936 -6.9398,-4.88555 -10.43501,-5.87835 -20.37631,-5.78783 -8.03855,0.0732 -9.8377,0.44346 -15.5,3.18983 -7.48149,3.62872 -9.43684,5.21677 -13.74335,11.16173 -6.41626,8.85739 -6.53559,9.86319 -7.12673,60.06563 l -0.53577,45.5 -23.25441,0.26844 -23.2544,0.26844 0.2544,-109.76844 z M 417.66667,546.33333 C 417.3,545.96667 417,510.50667 417,467.53333 c 0,-59.43703 0.28714,-78.42047 1.2,-79.33333 1.26741,-1.26741 39.07677,-1.7985 42.21821,-0.59301 1.2783,0.49053 1.58179,2.31323 1.58179,9.5 0,4.89115 0.35631,8.89301 0.79179,8.89301 0.43549,0 2.7097,-1.95421 5.05382,-4.34268 8.64829,-8.81197 26.56351,-15.61027 42.15439,-15.99636 l 6.5,-0.16096 0.27109,20.37212 c 0.18505,13.90602 -0.0834,20.79922 -0.84568,21.71775 -0.76419,0.9208 -2.42836,1.16802 -5.27109,0.78306 -6.04849,-0.81909 -19.24691,1.29394 -25.2507,4.04257 -6.16098,2.82058 -12.46849,8.83472 -15.51464,14.79301 -5.03754,9.85346 -5.2088,11.58906 -5.62859,57.04149 L 463.86555,547 h -22.76611 c -12.52136,0 -23.06611,-0.3 -23.43277,-0.66667 z m 126,0 C 543.3,545.96667 543,510.50667 543,467.53333 c 0,-59.43703 0.28714,-78.42047 1.2,-79.33333 1.26778,-1.26778 41.06881,-1.80155 44.21821,-0.59301 1.42401,0.54644 1.58179,8.52645 1.58179,80 V 547 h -22.83333 c -12.55834,0 -23.13334,-0.3 -23.5,-0.66667 z m 130.47991,-1.06565 c -0.88426,-1.6581 -5.6186,-12.84018 -20.64756,-48.76768 -5.76633,-13.7847 -16.94074,-40.37084 -34.67555,-82.5 -10.72657,-25.48103 -10.54167,-24.9345 -8.80656,-26.03161 1.84463,-1.16637 43.98733,-1.25204 45.81549,-0.0931 0.73282,0.46455 4.24816,7.99516 7.81186,16.73469 13.92828,34.15733 31.75201,78.10988 33.41098,82.39006 3.07341,7.92942 1.35671,11.02937 24.92021,-45 4.51047,-10.725 11.13361,-26.475 14.7181,-35 3.58449,-8.525 7.1552,-16.5125 7.9349,-17.75 1.39683,-2.21695 1.72628,-2.25 22.42599,-2.25 18.21483,0 21.08886,0.20987 21.61398,1.57831 0.68184,1.77684 0.29416,2.77598 -16.65419,42.92169 -6.73363,15.95 -14.41846,34.175 -17.07739,40.5 -2.65893,6.325 -10.82851,25.675 -18.15462,43 l -13.3202,31.5 -24.18637,0.26768 c -22.26445,0.2464 -24.26127,0.12721 -25.12907,-1.5 z M 1083,443.50666 V 340 h 68.893 c 76.6922,0 70.107,-0.65752 70.107,7 0,7.63707 5.5886,7 -61.407,7 -45.4834,0 -60.4862,0.29325 -61.393,1.2 -1.7225,1.72253 -1.7225,76.87747 0,78.6 0.9035,0.90353 14.4651,1.2 54.893,1.2 59.7515,0 54.907,-0.61761 54.907,7 0,7.61957 4.9123,7 -55.5,7 -48.5793,0 -54.3498,0.16628 -54.893,1.58179 -0.3339,0.86998 -0.607,19.22998 -0.607,40.8 0,29.16972 0.3075,39.52567 1.2,40.41821 0.9079,0.90787 16.499,1.2 64.0457,1.2 h 62.8457 l -0.2957,6.75 -0.2957,6.75 -71.25,0.25666 -71.25,0.25667 z m 1038.2438,26.42435 0.2562,-77.15335 6.8981,6e-5 c 5.1591,4e-5 7.1144,0.38668 7.7563,1.53372 0.4721,0.84351 0.7429,35.43101 0.6019,76.86111 L 2136.5,546.5 l -7.7562,0.29218 -7.7562,0.29217 z M 2381,469.39301 c 0,-70.35658 0.1478,-77.55028 1.5818,-77 0.87,0.33385 4.02,0.60699 7,0.60699 H 2395 v 13.83333 c 0,7.60834 0.2862,14.11956 0.6361,14.4694 0.3498,0.34983 2.7868,-2.16267 5.4156,-5.58333 5.2695,-6.8571 8.2086,-9.41571 17.1314,-14.91382 18.7493,-11.55307 50.7151,-12.48429 71.2742,-2.07634 7.3527,3.7223 18.4229,15.3416 22.3741,23.4839 6.331,13.04657 6.5007,14.82986 6.9032,72.53686 l 0.3645,52.25 h -7.4503 -7.4503 l -0.4697,-50.25 c -0.5096,-54.50967 -0.5559,-54.99404 -6.4488,-67.44007 -9.3065,-19.65567 -35.6422,-28.78467 -61.6132,-21.35762 -18.6533,5.33436 -30.1607,17.02011 -36.9745,37.54769 -1.8486,5.56933 -2.0232,9.42744 -2.4322,53.75 L 2395.8195,547 H 2388.4097 2381 Z M 554.76564,364.35429 c -10.48235,-3.62153 -17.01818,-12.71826 -17.01236,-23.67823 0.008,-15.56559 11.33705,-26.02597 28.24672,-26.08145 18.36438,-0.0602 29,9.14469 29,25.09899 0,10.93389 -3.79212,17.75611 -12.80595,23.03857 -3.9201,2.29733 -5.92457,2.73443 -13.6446,2.97537 -6.40751,0.19997 -10.43162,-0.1951 -13.78381,-1.35325 z m 1568.68676,-9.76005 c -9.0887,-3.95887 -9.0609,-17.70493 0.044,-22.02571 5.3354,-2.53178 10.1542,-1.55737 14.2532,2.88212 5.9105,6.40149 3.7687,15.76336 -4.3858,19.17053 -4.0461,1.69056 -5.9809,1.6853 -9.9118,-0.0269 z"
       id="path143"
       inkscapeConnector-curvature="0" />
    <path
       style="fill:#417a82"
       d="m 862,547.50799 c -43.56776,-8.191 -70.07869,-38.88052 -69.97819,-81.00799 0.0578,-24.21312 11.49358,-48.40705 29.59694,-62.61611 C 858.00188,375.32731 917.24169,380.99894 942.94817,415.5 954.24996,430.66831 959,446.04377 959,467.45839 c 0,10.3187 -0.25777,12.42655 -1.58179,12.93462 -0.86998,0.33385 -27.64498,0.60699 -59.5,0.60699 -64.94043,0 -59.66421,-0.72297 -55.84867,7.65265 4.18274,9.18169 12.68052,16.26091 24.51037,20.41878 7.46053,2.62218 25.18195,2.97086 32.99345,0.64916 6.55969,-1.94963 15.00534,-6.24101 19.40448,-9.85973 1.91282,-1.57347 3.95649,-2.86086 4.54149,-2.86086 0.585,0 4.90539,4.1625 9.60086,9.25 C 945.43284,519.59063 948,522.62882 948,523.86002 c 0,1.81723 -12.7913,11.78391 -19.87234,15.48405 -12.86371,6.72183 -27.52882,9.71588 -46.62766,9.51958 -7.15,-0.0735 -15.925,-0.68353 -19.5,-1.35566 z m 52.63172,-97.59938 c -2.47607,-12.38035 -13.85419,-24.01927 -26.86773,-27.48356 -18.91749,-5.03596 -37.7349,3.25151 -45.81245,20.17649 C 836.52037,453.98154 833.20024,453 877.125,453 H 915.25 Z M 1321,547.0755 c -29.9544,-3.41005 -54.017,-24.54584 -62.133,-54.5755 -1.7137,-6.34071 -2.1834,-11.00747 -2.2646,-22.5 -0.093,-13.17096 0.1555,-15.36233 2.7109,-23.90811 3.4751,-11.62157 6.4534,-17.66771 12.9477,-26.28471 11.8474,-15.71971 29.0597,-24.95803 51.7717,-27.7872 15.5938,-1.94247 32.2836,1.5779 46.4082,9.78886 6.6773,3.88171 18.4962,15.23515 21.0987,20.26775 1.2791,2.47354 1.8661,2.8929 2.5461,1.81903 0.486,-0.76759 0.8906,-22.67783 0.899,-48.68943 l 0.015,-47.29381 7.25,0.29381 7.25,0.29381 v 109 109 h -7 -7 l -0.2599,-15 c -0.1429,-8.25 -0.4975,-15.6437 -0.7879,-16.43044 -0.3521,-0.95401 -1.6354,0.21415 -3.8532,3.50731 -5.8021,8.61561 -15.6817,16.9413 -25.8756,21.80571 -5.0729,2.42073 -11.2484,4.86341 -13.7234,5.42818 -6.4056,1.46169 -22.3612,2.13435 -30,1.26474 z m 30.0947,-15.45518 c 26.5964,-8.28431 43.226,-32.18273 43.226,-62.12032 0,-18.68316 -6.2305,-34.47874 -18.4003,-46.64858 -23.5199,-23.51992 -62.6485,-23.4322 -85.9603,0.19269 C 1277.8532,435.31358 1272,450.42482 1272,469.4118 c 0,33.4984 19.1407,57.85184 50,63.61698 6.2171,1.16149 23.5355,0.32311 29.0947,-1.40846 z M 1526,547.37234 c -11.9251,-0.7327 -22.7356,-4.34731 -32.6161,-10.90559 -7.1083,-4.71822 -11.8119,-10.4489 -16.3883,-19.96675 C 1470.4319,502.84908 1470,498.25977 1470,442.17207 V 393 h 7.421 7.421 l 0.381,51.25 0.3809,51.25 2.6633,7.4409 c 5.5062,15.38347 15.3481,24.86551 30.2328,29.12745 8.1149,2.32354 27.5219,1.90663 35.5075,-0.7628 18.6982,-6.25036 29.8841,-18.61228 35.5663,-39.30555 1.5665,-5.7051 1.8283,-12.18659 2.1408,-53 0.1958,-25.575 0.5651,-46.3875 0.8207,-46.25 0.2556,0.1375 3.6147,0.25 7.4647,0.25 h 7 l -0.014,74.75 c -0.01,41.1125 -0.29,75.78175 -0.6278,77.04278 -0.5727,2.13808 -1.0609,2.27302 -7.2363,2 L 1592.5,546.5 l -0.2775,-14.25 c -0.1526,-7.8375 -0.6026,-14.2384 -1,-14.22421 -0.3974,0.0142 -2.2652,2.29944 -4.1507,5.07835 -1.8855,2.77891 -5.7105,7.06957 -8.5,9.53479 -5.7858,5.11323 -18.6887,11.65257 -26.0718,13.21352 -5.9331,1.25439 -18.8053,1.99267 -26.5,1.51989 z m 192.5,-0.29445 c -19.0769,-1.98436 -37.0232,-11.52218 -49.0679,-26.07789 -5.5281,-6.68051 -12.604,-20.99831 -15.0733,-30.5 -1.3328,-5.12865 -1.8237,-10.74269 -1.8365,-21 -0.015,-12.47642 0.2896,-15.03385 2.8036,-23.5 6.2576,-21.07323 18.6495,-36.42016 36.7862,-45.55841 9.4287,-4.75068 17.5453,-7.05521 29.9119,-8.49292 17.8831,-2.07901 37.7594,2.72609 51.3282,12.40863 6.4276,4.58665 14.629,13.12947 14.6413,15.25093 0,0.60952 -2.34,2.75088 -5.208,4.75856 l -5.2144,3.65033 -6.0356,-5.85723 c -3.3195,-3.22147 -7.5067,-6.86219 -9.3049,-8.09047 -8.6171,-5.88614 -25.9251,-9.88917 -37.5905,-8.69402 -27.2015,2.78688 -47.3755,19.65182 -54.5718,45.62084 -2.8707,10.35927 -2.8793,27.47547 -0.019,37.39595 6.3747,22.10785 20.4437,36.76573 41.4505,43.18547 9.1945,2.80988 28.7297,2.59055 37.8888,-0.4254 8.4716,-2.78955 16.3675,-7.74204 22.6864,-14.22949 2.6372,-2.70752 5.1302,-4.92277 5.54,-4.92277 1.6497,0 10.335,6.59246 10.359,7.8629 0.051,2.69999 -14.3193,15.63828 -21.5193,19.37472 -13.0213,6.75745 -30.6526,9.64004 -47.9549,7.84027 z m 146.5,0.30966 c -30.7844,-2.47688 -49.8685,-23.0748 -46.0912,-49.7474 2.5069,-17.70156 12.8341,-28.52804 32.5912,-34.16656 4.9609,-1.41581 11.9747,-1.7956 40.5,-2.19303 21.2873,-0.2966 34.9787,-0.87223 35.75,-1.50307 2.8529,-2.3334 0.412,-24.1414 -3.7164,-33.20383 -2.7912,-6.12694 -10.714,-14.10242 -16.5926,-16.7028 -20.9505,-9.26741 -49.8311,-5.11376 -71.3538,10.2622 -2.977,2.12682 -5.7137,3.86694 -6.0816,3.86694 -1.2522,0 -7.1386,-9.9758 -6.498,-11.01234 1.4442,-2.33666 11.5463,-8.95201 18.7603,-12.28507 19.8335,-9.16365 46.516,-11.63835 65.7321,-6.0964 14.4476,4.16672 26.4171,14.77389 30.912,27.39381 4.2997,12.07158 4.2713,11.68217 4.7908,65.79716 0.2762,28.76344 0.2068,53.87095 -0.154,55.79447 l -0.6561,3.4973 -6.6964,-0.29446 -6.6963,-0.29447 -0.2817,-11.75 c -0.2701,-11.26365 -1.0509,-13.79188 -3.0882,-10 -1.7901,3.33174 -10.1034,10.75871 -16.1039,14.38701 -3.3146,2.00419 -9.514,4.56323 -13.7764,5.68675 -7.7026,2.03032 -22.6444,3.25617 -31.2498,2.56379 z m 25.2008,-13.48452 c 14.5041,-3.00247 28.1039,-13.34235 35.1268,-26.70682 L 1929,500.20753 v -13.06858 c 0,-11.89707 -0.1734,-13.16138 -1.9343,-14.10377 -2.553,-1.36633 -44.7017,-1.35864 -58.0446,0.0106 -23.4238,2.40375 -34.058,11.28097 -34.874,29.11221 -0.299,6.53293 0.021,8.52542 2.0912,13.02728 4.1438,9.01048 12.066,15.17527 23.5746,18.34498 5.8633,1.61487 23.3513,1.8294 30.3879,0.37279 z m 148.8998,13.04485 c -17.0514,-2.28985 -28.5208,-13.96145 -31.0741,-31.62177 -0.545,-3.76984 -0.9958,-29.72447 -1.0067,-57.96912 -0.018,-45.70156 -0.1881,-51.20759 -1.6016,-51.75 -0.87,-0.33385 -7.13,-0.60699 -13.9112,-0.60699 h -12.3294 l -0.3388,-6.00182 -0.3388,-6.00182 13,-0.0135 c 7.15,-0.007 13.5506,-0.36331 14.2236,-0.79086 0.8611,-0.54709 1.3054,-5.50418 1.5,-16.73468 L 2007.5,359.5 l 7.25,-0.29381 7.25,-0.29381 v 16.43682 c 0,14.06574 0.2282,16.52438 1.5818,17.04381 0.87,0.33385 11.895,0.60699 24.5,0.60699 H 2071 v 6 6 h -22.9182 c -12.605,0 -23.63,0.27314 -24.5,0.60699 -1.4144,0.54273 -1.5805,6.07381 -1.5699,52.25 0.013,56.40455 0.214,58.73504 5.7458,66.60584 3.8279,5.4465 12.0859,9.5976 20.3922,10.25069 6.8922,0.5419 16.6986,-2.04532 21.9643,-5.79483 1.482,-1.05528 3.1819,-1.91869 3.7776,-1.91869 1.3472,0 6.1082,7.40644 6.1082,9.50215 0,2.09346 -8.1622,7.12359 -14.4049,8.87735 -6.8357,1.92035 -18.661,2.62036 -26.4945,1.56838 z m 208.1726,0.0705 c -15.6391,-1.75185 -30.4318,-8.55797 -41.8838,-19.27071 -16.2285,-15.18104 -23.3901,-33.1694 -23.3887,-58.74732 0,-19.92408 5.0506,-35.36879 16.2495,-49.70242 23.0155,-29.45776 70.3233,-36.65495 103.2498,-15.70795 33.0636,21.03426 43.7109,67.75533 24.1358,105.91 -5.3447,10.41748 -18.0464,23.32396 -28.1889,28.6434 -14.5903,7.65212 -32.6201,10.84133 -50.1737,8.875 z m 29.1777,-15.54324 c 19.4678,-5.67227 34.7744,-21.51501 41.0377,-42.47516 2.6002,-8.70159 3.073,-23.10488 1.0845,-33.0372 -6.167,-30.80323 -29.5124,-50.38278 -60.0731,-50.38278 -28.6493,0 -50.5947,16.69779 -59.0371,44.91998 -2.5045,8.37225 -2.5498,29.59881 -0.081,38 7.2334,24.61628 24.6484,40.3775 49.6182,44.90635 5.0687,0.91931 21.6781,-0.24917 27.4509,-1.93119 z M 78,463.51366 V 380.02733 L 45.25,379.76366 12.5,379.5 12.22886,359.75 11.95772,340 H 101.97886 192 v 19.39301 c 0,16.7614 -0.21465,19.47538 -1.58179,20 -0.86998,0.33385 -15.71998,0.60699 -33,0.60699 H 126 V 463.5 547 H 102 78 Z M 214,437.5 V 328 h 23 23 v 36.44098 c 0,24.93569 0.33979,36.65099 1.07621,37.10612 0.59192,0.36583 2.74928,-0.67937 4.79413,-2.32266 8.98286,-7.21882 22.54591,-11.9438 37.65768,-13.11884 8.13092,-0.63224 25.2766,0.83822 30.97198,2.65624 15.92936,5.08481 29.68906,17.57857 35.52769,32.25904 6.08899,15.30996 7.14006,28.28803 6.76087,83.47912 l -0.28856,42 -23.19646,0.2683 -23.19646,0.2683 -0.30354,-47.7683 c -0.29695,-46.73045 -0.35243,-47.89794 -2.55399,-53.73492 -2.93367,-7.77804 -6.54456,-12.11073 -13.27443,-15.9279 -5.17776,-2.93682 -6.04539,-3.10392 -15.97512,-3.0767 -9.18739,0.0252 -11.20605,0.3562 -16.14796,2.64796 -6.83333,3.16889 -12.90929,9.02933 -16.30124,15.72302 C 260.82256,454.23048 260,463.45241 260,507.13099 V 547 h -23 -23 z m 203.66667,108.83333 c -0.8329,-0.83289 -0.89144,-154.58402 -0.0597,-156.75154 0.52792,-1.37574 3.45893,-1.58179 22.5,-1.58179 L 462,388 v 9 c 0,4.95 0.36172,9 0.80383,9 0.44211,0 2.33303,-1.57773 4.20205,-3.50607 4.0519,-4.1805 14.70382,-10.6594 21.04093,-12.79789 8.38509,-2.82959 27.13138,-5.16147 27.70319,-3.44604 0.1375,0.4125 0.25,9.91127 0.25,21.10839 v 20.35838 l -10.75,0.57881 c -12.56535,0.67654 -15.86013,1.51852 -23.22905,5.93618 -6.74337,4.04264 -12.11089,11.00335 -15.16124,19.66141 -2.2766,6.46185 -2.33479,7.55592 -2.65179,49.85683 l -0.3241,43.25 h -22.77525 c -12.52638,0 -23.07524,-0.3 -23.4419,-0.66667 z m 125.80072,-0.56449 C 543.20102,545.07098 543.09939,509.4 543.24154,466.5 l 0.25846,-78 h 23 23 v 79 79 l -22.77416,0.26884 c -17.67693,0.20866 -22.88255,-0.0151 -23.25845,-1 z m 129.883,-2.50096 C 671.40561,538.57816 657.92838,506.50678 649.49503,486.5 620.91639,418.70166 609,389.97506 609,388.87943 c 0,-1.47026 46.57824,-1.10856 47.72002,0.37057 0.5307,0.6875 10.3444,24.32533 21.80821,52.52852 16.72027,41.13508 21.08954,51.02561 22.08813,50 0.68466,-0.70319 4.15306,-8.25352 7.70756,-16.77852 5.83254,-13.98856 31.87417,-75.76149 35.30652,-83.75 l 1.3964,-3.25 h 21.98658 C 784.87545,388 789,388.25491 789,389.35886 c 0,0.74738 -5.68092,14.80988 -12.62426,31.25 C 769.4324,437.04899 761.57899,455.675 758.92372,462 c -2.65526,6.325 -11.76359,27.925 -20.24072,48 l -15.41297,36.5 -24.17857,0.26788 -24.17857,0.26787 z m 410.32291,3.07211 C 1083.303,545.96966 1083,499.39167 1083,442.83333 V 340 h 69 69 v 7 7 h -59.9182 c -32.955,0 -60.63,0.27314 -61.5,0.60699 -1.4053,0.53924 -1.5818,4.99179 -1.5818,39.89301 0,34.90122 0.1765,39.35377 1.5818,39.89301 0.87,0.33385 25.6405,0.60699 55.0457,0.60699 h 53.4639 l -0.2957,6.75 -0.2957,6.75 -54.5,0.5 -54.5,0.5 -0.2614,40.93395 c -0.2048,32.08344 0.011,41.10709 1,41.73469 0.6938,0.4404 29.3864,0.80735 63.7614,0.81543 l 62.5,0.0147 -0.173,6.75062 -0.173,6.75061 -70.4037,0.25666 c -38.722,0.14116 -70.7066,-0.0463 -71.077,-0.41667 z m 1037.9934,-0.007 C 2121.3,545.96667 2121,511.31667 2121,469.33333 V 393 h 7.5 7.5 v 77 77 h -6.8333 c -3.7584,0 -7.1334,-0.3 -7.5,-0.66667 z M 2381,470.04381 V 393 h 7 7 v 13.94098 c 0,7.66754 0.3824,14.1773 0.8497,14.46613 0.4673,0.28883 2.5632,-1.82212 4.6574,-4.69099 13.6377,-18.68209 38.1949,-27.75664 65.548,-24.22174 5.7447,0.7424 11.8095,1.77539 13.4774,2.29554 13.6666,4.26209 25.0117,13.83102 31.3644,26.45403 7.2561,14.41826 7.3881,15.66527 7.8355,74.00605 l 0.3969,51.75 h -7.4722 -7.4722 l -0.4792,-50.75 c -0.516,-54.64321 -0.5113,-54.59285 -6.1428,-66.89352 -2.8475,-6.21977 -11.5649,-15.29651 -17.6939,-18.4233 C 2474.0444,407.96167 2461.5946,405 2454.928,405 c -9.5572,0 -20.7911,2.6497 -29.5618,6.9727 -13.2286,6.52015 -22.2294,17.89531 -27.1083,34.25896 -1.2897,4.32547 -1.677,13.76937 -2.1643,52.76834 l -0.5936,47.5 -7.25,0.29381 -7.25,0.29381 z M 557.77962,365.11051 c -6.0413,-1.27641 -12.92111,-6.16901 -16.25318,-11.55853 -2.75296,-4.4528 -3.02644,-5.67031 -3.02644,-13.47356 0,-9.08983 0.75695,-11.13985 6.43214,-17.42 5.45492,-6.0364 16.03357,-9.01589 26.78862,-7.54504 15.1162,2.06727 23.28946,10.70674 23.26947,24.59678 -0.0164,11.37864 -4.4801,18.50466 -14.89378,23.77687 -3.83636,1.94226 -16.46116,2.86067 -22.31683,1.62348 z M 2124.4152,354.59057 c -4.567,-2.00619 -7.4152,-6.16268 -7.4152,-10.82114 0,-5.55433 2.6208,-9.45918 7.6334,-11.37354 5.2625,-2.00976 10.0897,-0.70206 13.8339,3.74759 7.639,9.07843 -3.1468,23.23763 -14.0521,18.44709 z"
       id="path141"
       inkscapeConnector-curvature="0" />
    <path
       style="fill:#53585e"
       d="M 863.39879,547.46526 C 840.96796,543.96331 819.66047,532.04339 808.3175,516.65144 800.03584,505.41358 795.73742,495.13506 793.40824,481 c -3.03434,-18.41449 -0.51855,-35.0164 7.79873,-51.46443 10.70164,-21.16331 27.99949,-34.43679 54.29303,-41.66168 6.89502,-1.8946 34.97491,-1.85702 43,0.0575 17.55516,4.18818 34.39363,14.54223 43.83147,26.95219 11.4104,15.00368 16.66621,31.83165 16.66771,53.36637 L 959,480 h -58.30887 c -45.11362,0 -58.67667,0.28287 -59.93415,1.25 -1.47835,1.137 -1.37305,1.79238 1.16487,7.25 4.50112,9.67933 11.67864,15.91828 23.57815,20.49495 5.0553,1.94431 7.8894,2.30993 18,2.32213 16.0711,0.0194 23.0434,-2.10724 34.20709,-10.43347 2.8639,-2.13598 5.51329,-3.88361 5.88753,-3.88361 0.61354,0 8.27463,8.00757 20.45299,21.37801 l 4.44309,4.878 -6.59753,6.122 c -6.87237,6.37701 -17.10531,12.11131 -26.89317,15.07028 -14.6359,4.42458 -34.97002,5.61346 -51.60121,3.01697 z m 51.13065,-98.16003 c -2.13702,-11.39127 -12.07514,-22.1376 -24.24789,-26.21982 -15.95344,-5.35011 -35.5731,0.0516 -44.3887,12.2212 C 842.17156,440.4437 839,447.49302 839,450.62712 V 453 h 38.11129 38.11129 z M 1321,547.0755 c -40.044,-4.55867 -67.3021,-39.51697 -64.6993,-82.97636 0.6234,-10.40958 4.134,-24.02944 8.3868,-32.53835 11.1532,-22.31503 31.87,-36.11831 59.3452,-39.54081 15.5938,-1.94247 32.2836,1.5779 46.4082,9.78886 6.6773,3.88171 18.4962,15.23515 21.0987,20.26775 1.2791,2.47354 1.8661,2.8929 2.5461,1.81903 0.486,-0.76759 0.8906,-22.67783 0.899,-48.68943 l 0.015,-47.29381 7.25,0.29381 7.25,0.29381 v 109 109 h -7 -7 l -0.2599,-15 c -0.1429,-8.25 -0.4975,-15.6437 -0.7879,-16.43044 -0.3521,-0.95401 -1.6354,0.21415 -3.8532,3.50731 -5.8021,8.61561 -15.6817,16.9413 -25.8756,21.80571 -5.0729,2.42073 -11.2484,4.86341 -13.7234,5.42818 -6.4056,1.46169 -22.3612,2.13435 -30,1.26474 z m 30.0947,-15.45518 c 26.5964,-8.28431 43.226,-32.18273 43.226,-62.12032 0,-18.68316 -6.2305,-34.47874 -18.4003,-46.64858 -23.5199,-23.51992 -62.6485,-23.4322 -85.9603,0.19269 C 1277.8532,435.31358 1272,450.42482 1272,469.4118 c 0,33.4984 19.1407,57.85184 50,63.61698 6.2171,1.16149 23.5355,0.32311 29.0947,-1.40846 z M 1526,547.36596 c -11.8987,-0.71726 -22.7285,-4.33624 -32.6161,-10.89921 -7.1083,-4.71822 -11.8119,-10.4489 -16.3883,-19.96675 C 1470.4319,502.84908 1470,498.25977 1470,442.17207 V 393 h 7.421 7.421 l 0.381,51.25 0.3809,51.25 2.6633,7.4409 c 5.5062,15.38347 15.3481,24.86551 30.2328,29.12745 8.1149,2.32354 27.5219,1.90663 35.5075,-0.7628 18.6982,-6.25036 29.8841,-18.61228 35.5663,-39.30555 1.5665,-5.7051 1.8283,-12.18659 2.1408,-53 0.1958,-25.575 0.5651,-46.3875 0.8207,-46.25 0.2556,0.1375 3.6147,0.25 7.4647,0.25 h 7 l -0.014,74.75 c -0.01,41.1125 -0.29,75.78175 -0.6278,77.04278 -0.5727,2.13808 -1.0609,2.27302 -7.2363,2 L 1592.5,546.5 l -0.2775,-14.25 c -0.1526,-7.8375 -0.6026,-14.2384 -1,-14.22421 -0.3974,0.0142 -2.2652,2.29944 -4.1507,5.07835 -6.8579,10.1072 -20.0958,19.03107 -33.0718,22.29408 -6.0987,1.5336 -19.5362,2.47794 -28,1.96774 z m 192.5,-0.37709 c -25.7125,-2.60061 -46.7591,-17.30034 -57.9706,-40.48887 -6.4624,-13.36598 -7.9864,-20.40856 -8.0071,-37 -0.015,-12.47642 0.2896,-15.03385 2.8036,-23.5 6.2576,-21.07323 18.6495,-36.42016 36.7862,-45.55841 9.4287,-4.75068 17.5453,-7.05521 29.9119,-8.49292 17.8831,-2.07901 37.7594,2.72609 51.3282,12.40863 6.4276,4.58665 14.629,13.12947 14.6413,15.25093 0,0.60952 -2.34,2.75088 -5.208,4.75856 l -5.2144,3.65033 -6.0356,-5.85723 c -3.3195,-3.22147 -7.5067,-6.86219 -9.3049,-8.09047 -8.6171,-5.88614 -25.9251,-9.88917 -37.5905,-8.69402 -27.2015,2.78688 -47.3755,19.65182 -54.5718,45.62084 -2.8707,10.35927 -2.8793,27.47547 -0.019,37.39595 6.3747,22.10785 20.4437,36.76573 41.4505,43.18547 9.1945,2.80988 28.7297,2.59055 37.8888,-0.4254 8.4716,-2.78955 16.3675,-7.74204 22.6864,-14.22949 2.6372,-2.70752 5.1302,-4.92277 5.54,-4.92277 1.6497,0 10.335,6.59246 10.359,7.8629 0.014,0.7496 -3.2367,4.59295 -7.2242,8.54078 -15.1218,14.97136 -36.0887,21.23119 -62.25,18.58519 z m 146.5,0.39868 c -30.7844,-2.47688 -49.8685,-23.0748 -46.0912,-49.7474 2.5069,-17.70156 12.8341,-28.52804 32.5912,-34.16656 4.9609,-1.41581 11.9747,-1.7956 40.5,-2.19303 21.2873,-0.2966 34.9787,-0.87223 35.75,-1.50307 2.8529,-2.3334 0.412,-24.1414 -3.7164,-33.20383 -2.7912,-6.12694 -10.714,-14.10242 -16.5926,-16.7028 -20.9505,-9.26741 -49.8311,-5.11376 -71.3538,10.2622 -2.977,2.12682 -5.7137,3.86694 -6.0816,3.86694 -1.2522,0 -7.1386,-9.9758 -6.498,-11.01234 1.4442,-2.33666 11.5463,-8.95201 18.7603,-12.28507 19.8335,-9.16365 46.516,-11.63835 65.7321,-6.0964 14.4476,4.16672 26.4171,14.77389 30.912,27.39381 4.2997,12.07158 4.2713,11.68217 4.7908,65.79716 0.2762,28.76344 0.2068,53.87095 -0.154,55.79447 l -0.6561,3.4973 -6.6964,-0.29446 -6.6963,-0.29447 -0.2817,-11.75 c -0.2701,-11.26365 -1.0509,-13.79188 -3.0882,-10 -1.7901,3.33174 -10.1034,10.75871 -16.1039,14.38701 -3.3146,2.00419 -9.514,4.56323 -13.7764,5.68675 -7.7026,2.03032 -22.6444,3.25617 -31.2498,2.56379 z m 25.2008,-13.48452 c 14.5041,-3.00247 28.1039,-13.34235 35.1268,-26.70682 L 1929,500.20753 v -13.06858 c 0,-11.89707 -0.1734,-13.16138 -1.9343,-14.10377 -2.553,-1.36633 -44.7017,-1.35864 -58.0446,0.0106 -23.4238,2.40375 -34.058,11.28097 -34.874,29.11221 -0.299,6.53293 0.021,8.52542 2.0912,13.02728 4.1438,9.01048 12.066,15.17527 23.5746,18.34498 5.8633,1.61487 23.3513,1.8294 30.3879,0.37279 z m 148.8998,13.04485 c -17.0514,-2.28985 -28.5208,-13.96145 -31.0741,-31.62177 -0.545,-3.76984 -0.9958,-29.72447 -1.0067,-57.96912 -0.018,-45.70156 -0.1881,-51.20759 -1.6016,-51.75 -0.87,-0.33385 -7.13,-0.60699 -13.9112,-0.60699 h -12.3294 l -0.3388,-6.00182 -0.3388,-6.00182 13,-0.0135 c 7.15,-0.007 13.5506,-0.36331 14.2236,-0.79086 0.8611,-0.54709 1.3054,-5.50418 1.5,-16.73468 L 2007.5,359.5 l 7.25,-0.29381 7.25,-0.29381 v 16.43682 c 0,14.06574 0.2282,16.52438 1.5818,17.04381 0.87,0.33385 11.895,0.60699 24.5,0.60699 H 2071 v 6 6 h -22.9182 c -12.605,0 -23.63,0.27314 -24.5,0.60699 -1.4144,0.54273 -1.5805,6.07381 -1.5699,52.25 0.013,56.40455 0.214,58.73504 5.7458,66.60584 3.8279,5.4465 12.0859,9.5976 20.3922,10.25069 6.8922,0.5419 16.6986,-2.04532 21.9643,-5.79483 1.482,-1.05528 3.1819,-1.91869 3.7776,-1.91869 1.3472,0 6.1082,7.40644 6.1082,9.50215 0,2.09346 -8.1622,7.12359 -14.4049,8.87735 -6.8357,1.92035 -18.661,2.62036 -26.4945,1.56838 z m 208.1726,0.0705 c -15.6391,-1.75185 -30.4318,-8.55797 -41.8838,-19.27071 -16.2285,-15.18104 -23.3901,-33.1694 -23.3887,-58.74732 0,-19.92408 5.0506,-35.36879 16.2495,-49.70242 23.0155,-29.45776 70.3233,-36.65495 103.2498,-15.70795 33.0636,21.03426 43.7109,67.75533 24.1358,105.91 -5.3447,10.41748 -18.0464,23.32396 -28.1889,28.6434 -14.5903,7.65212 -32.6201,10.84133 -50.1737,8.875 z m 29.1777,-15.54324 c 19.4678,-5.67227 34.7744,-21.51501 41.0377,-42.47516 2.6002,-8.70159 3.073,-23.10488 1.0845,-33.0372 -6.167,-30.80323 -29.5124,-50.38278 -60.0731,-50.38278 -28.6493,0 -50.5947,16.69779 -59.0371,44.91998 -2.5121,8.39773 -2.5818,29.62686 -0.1248,38 7.2002,24.53751 24.724,40.38328 49.6619,44.90635 5.0687,0.91931 21.6781,-0.24917 27.4509,-1.93119 z M 78,463.62509 C 78,388.48756 77.843102,380.15377 76.418213,379.60699 75.548229,379.27314 60.688513,379 43.39662,379 H 11.956814 L 12.228407,359.75 12.5,340.5 h 89.5 89.5 l 0.27159,19.25 0.2716,19.25 -31.7716,0.0153 c -17.47437,0.008 -32.33147,0.37086 -33.01577,0.80542 -0.97249,0.61758 -1.30004,18.90266 -1.5,83.73469 L 125.5,546.5 101.75,546.7681 78,547.0362 Z M 214.46105,545.75 c -0.26189,-0.6875 -0.36027,-49.85 -0.21861,-109.25 l 0.25756,-108 22.75,-0.26877 22.75,-0.26878 v 36.95976 c 0,21.99201 0.38073,37.19506 0.94013,37.54079 0.51707,0.31957 2.42957,-0.71617 4.25,-2.30163 4.59138,-3.99877 16.04729,-9.68379 23.80987,-11.81571 9.29409,-2.55254 35.00353,-2.50312 43.5,0.0836 18.49157,5.62972 31.83437,17.7163 38.16385,34.57073 4.70174,12.51999 4.6638,12.00027 5.05617,69.2689 l 0.37524,54.76889 L 353.29763,546.7689 330.5,546.5 l -0.53307,-48 c -0.33953,-30.57327 -0.92647,-49.09951 -1.61666,-51.02847 -4.48186,-12.52609 -10.91806,-18.43942 -22.76854,-20.91886 C 288.70294,423.02116 271.41393,431.28127 264.87704,446 260.4824,455.89515 260,461.78685 260,505.56538 V 547 h -22.53138 c -17.10449,0 -22.64608,-0.30107 -23.00757,-1.25 z M 418.24397,467.76879 418.5,388.5 h 21.5 21.5 l 0.28753,9.25 c 0.15814,5.0875 0.54701,9.25 0.86416,9.25 0.31715,0 2.13996,-1.78347 4.05067,-3.96326 3.46873,-3.9572 13.74625,-10.41623 20.22184,-12.70864 6.06483,-2.147 12.87752,-3.50925 21.07161,-4.21343 L 516,385.42681 v 21.16076 21.16076 l -11.25,0.49291 c -13.56901,0.59451 -20.0631,2.81566 -27.65847,9.45991 -5.13073,4.48824 -8.65634,10.10415 -11.17391,17.79885 -0.95779,2.92737 -1.45741,15.66483 -1.86318,47.5 l -0.55444,43.5 -22.75603,0.26879 -22.75602,0.26879 z m 125.37011,77.6679 c -0.92476,-2.40988 -0.70791,-154.74061 0.22237,-156.2063 0.62037,-0.97743 5.91437,-1.20756 23.00377,-1 l 22.19794,0.26961 -2e-5,79 -2e-5,79 -22.40498,0.26848 c -19.77526,0.23697 -22.47705,0.0807 -23.01906,-1.33179 z M 673.017,541.75 c -3.18015,-7.42151 -11.30395,-26.70781 -21.79821,-51.75 -13.23929,-31.59259 -29.68154,-70.72303 -35.73441,-85.04331 -2.91598,-6.89883 -5.45536,-13.42383 -5.64308,-14.5 -0.3296,-1.88961 0.4546,-1.96589 22.87353,-2.22503 l 23.21484,-0.26835 1.42392,2.76835 c 0.78316,1.52259 6.25068,14.69334 12.15005,29.26834 5.89937,14.575 14.11167,34.825 18.24955,45 4.13788,10.175 8.31605,20.525 9.28483,23 0.96877,2.475 2.27635,4.5 2.90572,4.5 0.62937,0 4.08524,-6.975 7.6797,-15.5 3.59447,-8.525 9.86041,-23.375 13.92431,-33 4.06391,-9.625 10.97831,-26.05 15.36534,-36.5 l 7.97642,-19 22.05524,-0.26913 C 781.09317,388.05822 789,388.31857 789,388.95709 c 0,0.54744 -3.64404,9.66855 -8.09786,20.26913 -4.45383,10.60058 -10.92929,26.02378 -14.38991,34.27378 -3.46063,8.25 -8.7699,20.85 -11.79838,28 -3.02847,7.15 -7.97843,18.85 -10.9999,26 -3.02146,7.15 -8.72991,20.65 -12.68543,30 -3.95552,9.35 -7.42824,17.5625 -7.71717,18.25 -0.39933,0.95019 -6.2241,1.25 -24.28501,1.25 h -23.75969 z m 410.6563,4.58999 C 1083.303,545.96966 1083,499.39167 1083,442.83333 V 340 h 69 69 v 7 7 h -59.9182 c -32.955,0 -60.63,0.27314 -61.5,0.60699 -1.4053,0.53924 -1.5818,4.99179 -1.5818,39.89301 0,34.90122 0.1765,39.35377 1.5818,39.89301 0.87,0.33385 25.6405,0.60699 55.0457,0.60699 h 53.4639 l -0.2957,6.75 -0.2957,6.75 -54.5,0.5 -54.5,0.5 -0.2614,40.93395 c -0.2048,32.08344 0.011,41.10709 1,41.73469 0.6938,0.4404 29.3864,0.80735 63.7614,0.81543 l 62.5,0.0147 -0.173,6.75062 -0.173,6.75061 -70.4037,0.25666 c -38.722,0.14116 -70.7066,-0.0463 -71.077,-0.41667 z m 1037.9934,-0.007 C 2121.3,545.96667 2121,511.31667 2121,469.33333 V 393 h 7.5 7.5 v 77 77 h -6.8333 c -3.7584,0 -7.1334,-0.3 -7.5,-0.66667 z M 2381,470.04381 V 393 h 7 7 v 13.94098 c 0,7.66754 0.3824,14.1773 0.8497,14.46613 0.4673,0.28883 2.5632,-1.82212 4.6574,-4.69099 13.6377,-18.68209 38.1949,-27.75664 65.548,-24.22174 5.7447,0.7424 11.8095,1.77539 13.4774,2.29554 13.6666,4.26209 25.0117,13.83102 31.3644,26.45403 7.2561,14.41826 7.3881,15.66527 7.8355,74.00605 l 0.3969,51.75 h -7.4722 -7.4722 l -0.4792,-50.75 c -0.516,-54.64321 -0.5113,-54.59285 -6.1428,-66.89352 -2.9726,-6.49305 -11.6747,-15.37227 -18.37,-18.74394 -20.9797,-10.56505 -52.1545,-5.22249 -67.7369,11.60834 -3.177,3.43152 -7.0928,9.05237 -8.7018,12.49079 -6.0306,12.88707 -6.0167,12.75218 -6.6606,64.28833 l -0.5936,47.5 -7.25,0.29381 -7.25,0.29381 z M 559.5,365.10106 c -6.27681,-1.19286 -10.86729,-3.54871 -14.79481,-7.59274 -4.63424,-4.77174 -6.16356,-9.26753 -6.14347,-18.06027 0.0134,-5.86066 0.47785,-7.83986 2.74949,-11.71611 C 546.2638,319.28098 554.58035,315 566.04522,315 583.7334,315 595,324.72776 595,340 c 0,10.24331 -5.60764,19.16951 -14.51917,23.1115 -4.7076,2.0824 -15.2379,3.08096 -20.98083,1.98956 z m 1564.9152,-10.51049 c -4.567,-2.00619 -7.4152,-6.16268 -7.4152,-10.82114 0,-5.55433 2.6208,-9.45918 7.6334,-11.37354 5.2625,-2.00976 10.0897,-0.70206 13.8339,3.74759 7.639,9.07843 -3.1468,23.23763 -14.0521,18.44709 z"
       id="path139"
       inkscapeConnector-curvature="0" />
    <path
       style="fill:#00636b"
       d="M 863.39879,547.46526 C 840.96796,543.96331 819.66047,532.04339 808.3175,516.65144 800.03584,505.41358 795.73742,495.13506 793.40824,481 c -3.03434,-18.41449 -0.51855,-35.0164 7.79873,-51.46443 10.70164,-21.16331 27.99949,-34.43679 54.29303,-41.66168 6.89502,-1.8946 34.97491,-1.85702 43,0.0575 17.55516,4.18818 34.39363,14.54223 43.83147,26.95219 11.4104,15.00368 16.66621,31.83165 16.66771,53.36637 L 959,480 h -58.30887 c -45.11362,0 -58.67667,0.28287 -59.93415,1.25 -1.47835,1.137 -1.37305,1.79238 1.16487,7.25 4.50112,9.67933 11.67864,15.91828 23.57815,20.49495 5.0553,1.94431 7.8894,2.30993 18,2.32213 16.0711,0.0194 23.0434,-2.10724 34.20709,-10.43347 2.8639,-2.13598 5.51329,-3.88361 5.88753,-3.88361 0.61354,0 8.27463,8.00757 20.45299,21.37801 l 4.44309,4.878 -6.59753,6.122 c -6.87237,6.37701 -17.10531,12.11131 -26.89317,15.07028 -14.6359,4.42458 -34.97002,5.61346 -51.60121,3.01697 z m 51.13065,-98.16003 c -2.13702,-11.39127 -12.07514,-22.1376 -24.24789,-26.21982 -15.95344,-5.35011 -35.5731,0.0516 -44.3887,12.2212 C 842.17156,440.4437 839,447.49302 839,450.62712 V 453 h 38.11129 38.11129 z M 78,463.62509 C 78,388.48756 77.843102,380.15377 76.418213,379.60699 75.548229,379.27314 60.688513,379 43.39662,379 H 11.956814 L 12.228407,359.75 12.5,340.5 h 89.5 89.5 l 0.27159,19.25 0.2716,19.25 -31.7716,0.0153 c -17.47437,0.008 -32.33147,0.37086 -33.01577,0.80542 -0.97249,0.61758 -1.30004,18.90266 -1.5,83.73469 L 125.5,546.5 101.75,546.7681 78,547.0362 Z M 214.46105,545.75 c -0.26189,-0.6875 -0.36027,-49.85 -0.21861,-109.25 l 0.25756,-108 22.75,-0.26877 22.75,-0.26878 v 36.95976 c 0,21.99201 0.38073,37.19506 0.94013,37.54079 0.51707,0.31957 2.42957,-0.71617 4.25,-2.30163 4.59138,-3.99877 16.04729,-9.68379 23.80987,-11.81571 9.29409,-2.55254 35.00353,-2.50312 43.5,0.0836 18.49157,5.62972 31.83437,17.7163 38.16385,34.57073 4.70174,12.51999 4.6638,12.00027 5.05617,69.2689 l 0.37524,54.76889 L 353.29763,546.7689 330.5,546.5 l -0.53307,-48 c -0.33953,-30.57327 -0.92647,-49.09951 -1.61666,-51.02847 -4.48186,-12.52609 -10.91806,-18.43942 -22.76854,-20.91886 C 288.70294,423.02116 271.41393,431.28127 264.87704,446 260.4824,455.89515 260,461.78685 260,505.56538 V 547 h -22.53138 c -17.10449,0 -22.64608,-0.30107 -23.00757,-1.25 z M 418.24397,467.76879 418.5,388.5 h 21.5 21.5 l 0.28753,9.25 c 0.15814,5.0875 0.54701,9.25 0.86416,9.25 0.31715,0 2.13996,-1.78347 4.05067,-3.96326 3.46873,-3.9572 13.74625,-10.41623 20.22184,-12.70864 6.06483,-2.147 12.87752,-3.50925 21.07161,-4.21343 L 516,385.42681 v 21.16076 21.16076 l -11.25,0.49291 c -13.56901,0.59451 -20.0631,2.81566 -27.65847,9.45991 -5.13073,4.48824 -8.65634,10.10415 -11.17391,17.79885 -0.95779,2.92737 -1.45741,15.66483 -1.86318,47.5 l -0.55444,43.5 -22.75603,0.26879 -22.75602,0.26879 z m 125.37011,77.6679 c -0.92476,-2.40988 -0.70791,-154.74061 0.22237,-156.2063 0.62037,-0.97743 5.91437,-1.20756 23.00377,-1 l 22.19794,0.26961 -2e-5,79 -2e-5,79 -22.40498,0.26848 c -19.77526,0.23697 -22.47705,0.0807 -23.01906,-1.33179 z M 673.017,541.75 c -3.18015,-7.42151 -11.30395,-26.70781 -21.79821,-51.75 -13.23929,-31.59259 -29.68154,-70.72303 -35.73441,-85.04331 -2.91598,-6.89883 -5.45536,-13.42383 -5.64308,-14.5 -0.3296,-1.88961 0.4546,-1.96589 22.87353,-2.22503 l 23.21484,-0.26835 1.42392,2.76835 c 0.78316,1.52259 6.25068,14.69334 12.15005,29.26834 5.89937,14.575 14.11167,34.825 18.24955,45 4.13788,10.175 8.31605,20.525 9.28483,23 0.96877,2.475 2.27635,4.5 2.90572,4.5 0.62937,0 4.08524,-6.975 7.6797,-15.5 3.59447,-8.525 9.86041,-23.375 13.92431,-33 4.06391,-9.625 10.97831,-26.05 15.36534,-36.5 l 7.97642,-19 22.05524,-0.26913 C 781.09317,388.05822 789,388.31857 789,388.95709 c 0,0.54744 -3.64404,9.66855 -8.09786,20.26913 -4.45383,10.60058 -10.92929,26.02378 -14.38991,34.27378 -3.46063,8.25 -8.7699,20.85 -11.79838,28 -3.02847,7.15 -7.97843,18.85 -10.9999,26 -3.02146,7.15 -8.72991,20.65 -12.68543,30 -3.95552,9.35 -7.42824,17.5625 -7.71717,18.25 -0.39933,0.95019 -6.2241,1.25 -24.28501,1.25 H 675.26665 Z M 559.5,365.10106 c -6.27681,-1.19286 -10.86729,-3.54871 -14.79481,-7.59274 -4.63424,-4.77174 -6.16356,-9.26753 -6.14347,-18.06027 0.0134,-5.86066 0.47785,-7.83986 2.74949,-11.71611 C 546.2638,319.28098 554.58035,315 566.04522,315 583.7334,315 595,324.72776 595,340 c 0,10.24331 -5.60764,19.16951 -14.51917,23.1115 -4.7076,2.0824 -15.2379,3.08096 -20.98083,1.98956 z"
       id="path137"
       inkscapeConnector-curvature="0" />
  </g>
</svg>
